{"glyphs":{"0":{"ha":1007,"x_min":69,"x_max":936,"o":"m 936 842 l 936 132 q 926 81 936 106 q 897 39 915 57 q 855 10 879 21 q 803 0 831 0 l 203 0 q 151 10 175 0 q 108 39 126 21 q 80 81 90 57 q 69 132 69 106 l 69 842 q 80 893 69 869 q 108 935 90 917 q 151 963 126 953 q 203 974 175 974 l 803 974 q 855 963 831 974 q 897 935 879 953 q 926 893 915 917 q 936 842 936 869 m 861 132 l 861 842 q 860 851 861 847 q 858 861 860 856 l 214 75 l 394 75 q 599 74 499 75 q 803 74 699 74 q 844 91 828 74 q 861 132 861 108 m 613 899 q 472 900 542 900 q 332 900 403 900 l 203 900 q 162 883 179 900 q 144 842 144 867 l 144 132 q 147 114 144 128 l 792 899 l 613 899 z "},"1":{"ha":406,"x_min":69,"x_max":338,"o":"m 69 900 l 69 974 l 338 974 l 338 0 l 261 0 l 261 900 l 69 900 z "},"2":{"ha":1007,"x_min":69,"x_max":936,"o":"m 861 606 l 861 842 q 844 883 861 867 q 803 900 828 900 l 69 900 l 69 974 l 803 974 q 855 963 831 974 q 897 935 879 953 q 926 893 915 917 q 936 842 936 869 l 936 606 q 926 555 936 579 q 897 513 915 531 q 855 484 879 494 q 803 474 831 474 l 203 474 q 162 457 179 474 q 144 417 144 440 l 144 132 q 162 91 144 108 q 203 74 179 74 l 936 74 l 936 0 l 203 0 q 151 10 175 0 q 108 39 126 21 q 80 81 90 57 q 69 132 69 106 l 69 417 q 80 467 69 443 q 108 508 90 490 q 151 537 126 526 q 203 547 175 547 l 803 547 q 844 565 828 547 q 861 606 861 582 z "},"3":{"ha":1007,"x_min":69,"x_max":936,"o":"m 803 0 l 69 0 l 69 74 l 803 74 q 844 91 828 74 q 861 132 861 108 l 861 417 q 844 457 861 440 q 803 474 828 474 l 69 474 l 69 547 l 779 547 q 820 565 803 547 q 838 606 838 582 l 838 842 q 820 883 838 867 q 779 900 803 900 l 69 900 l 69 974 l 779 974 q 831 963 807 974 q 874 935 856 953 q 902 893 892 917 q 913 842 913 869 l 913 606 q 882 522 913 558 q 936 417 936 481 l 936 132 q 926 81 936 106 q 897 39 915 57 q 855 10 879 21 q 803 0 831 0 z "},"4":{"ha":1007,"x_min":69,"x_max":936,"o":"m 861 558 l 861 974 l 936 974 l 936 0 l 861 0 l 861 439 q 803 426 835 426 l 203 426 q 151 437 175 426 q 108 465 126 447 q 80 508 90 483 q 69 558 69 532 l 69 974 l 144 974 l 144 558 q 162 517 144 535 q 203 500 179 500 l 803 500 q 844 517 828 500 q 861 558 861 535 z "},"5":{"ha":1007,"x_min":69,"x_max":938,"o":"m 204 547 l 804 547 q 856 537 832 547 q 899 508 881 526 q 927 467 917 490 q 938 417 938 443 l 938 132 q 927 81 938 106 q 899 39 917 57 q 856 10 881 21 q 804 0 832 0 l 204 0 q 151 10 176 0 q 108 39 126 21 q 80 81 90 57 q 69 132 69 106 l 69 146 l 146 146 l 146 132 q 163 91 146 108 q 204 74 179 74 l 804 74 q 844 91 828 74 q 861 132 861 108 l 861 417 q 844 457 861 440 q 804 474 828 474 l 204 474 q 163 457 179 474 q 146 417 146 440 l 146 403 l 69 403 l 69 417 q 81 689 75 556 q 94 961 88 822 l 94 974 l 938 974 l 938 900 l 167 900 l 151 538 q 204 547 172 547 z "},"6":{"ha":1007,"x_min":69,"x_max":936,"o":"m 203 900 q 162 883 179 900 q 144 842 144 867 l 144 535 q 203 547 172 547 l 803 547 q 855 537 831 547 q 897 508 879 526 q 926 467 915 490 q 936 417 936 443 l 936 132 q 926 81 936 106 q 897 39 915 57 q 855 10 879 21 q 803 0 831 0 l 203 0 q 151 10 175 0 q 108 39 126 21 q 80 81 90 57 q 69 132 69 106 l 69 842 q 80 893 69 869 q 108 935 90 917 q 151 963 126 953 q 203 974 175 974 l 803 974 q 855 963 831 974 q 897 935 879 953 q 926 893 915 917 q 936 842 936 869 l 936 711 l 861 711 l 861 842 q 844 883 861 867 q 803 900 828 900 l 203 900 m 803 474 l 203 474 q 162 457 179 474 q 144 417 144 440 l 144 132 q 162 91 144 108 q 203 74 179 74 l 803 74 q 844 91 828 74 q 861 132 861 108 l 861 417 q 844 457 861 440 q 803 474 828 474 z "},"7":{"ha":1007,"x_min":69,"x_max":936,"o":"m 307 0 l 214 0 l 840 900 l 69 900 l 69 974 l 936 974 l 936 910 l 307 0 z "},"8":{"ha":1007,"x_min":69,"x_max":936,"o":"m 779 974 q 831 963 807 974 q 874 935 856 953 q 902 893 892 917 q 913 842 913 869 l 913 606 q 882 522 913 558 q 936 417 936 481 l 936 132 q 926 81 936 106 q 897 39 915 57 q 855 10 879 21 q 803 0 831 0 l 203 0 q 151 10 175 0 q 108 39 126 21 q 80 81 90 57 q 69 132 69 106 l 69 417 q 84 476 69 449 q 124 522 99 503 q 93 606 93 558 l 93 842 q 103 893 93 869 q 132 935 114 917 q 175 963 150 953 q 228 974 200 974 l 779 974 m 803 74 q 844 91 828 74 q 861 132 861 108 l 861 417 q 844 457 861 440 q 803 474 828 474 l 203 474 q 162 457 179 474 q 144 417 144 440 l 144 132 q 162 91 144 108 q 203 74 179 74 l 803 74 m 838 606 l 838 842 q 820 883 838 867 q 779 900 803 900 l 228 900 q 186 883 203 900 q 169 842 169 867 l 169 606 q 186 565 169 582 q 228 547 203 547 l 779 547 q 820 565 803 547 q 838 606 838 582 z "},"9":{"ha":1007,"x_min":69,"x_max":936,"o":"m 803 974 q 855 963 831 974 q 897 935 879 953 q 926 893 915 917 q 936 842 936 869 l 936 132 q 926 81 936 106 q 897 39 915 57 q 855 10 879 21 q 803 0 831 0 l 203 0 q 151 10 175 0 q 108 39 126 21 q 80 81 90 57 q 69 132 69 106 l 69 264 l 144 264 l 144 132 q 162 91 144 108 q 203 74 179 74 l 803 74 q 844 91 828 74 q 861 132 861 108 l 861 439 q 803 426 835 426 l 203 426 q 151 437 175 426 q 108 465 126 447 q 80 508 90 483 q 69 558 69 532 l 69 842 q 80 893 69 869 q 108 935 90 917 q 151 963 126 953 q 203 974 175 974 l 803 974 m 803 500 q 844 517 828 500 q 861 558 861 535 l 861 842 q 844 883 861 867 q 803 900 828 900 l 203 900 q 162 883 179 900 q 144 842 144 867 l 144 558 q 162 517 144 535 q 203 500 179 500 l 803 500 z "},"\u0000":{"ha":0,"x_min":0,"x_max":0,"o":""}," ":{"ha":347,"x_min":0,"x_max":0,"o":""},"\r":{"ha":0,"x_min":0,"x_max":0,"o":""},"\n":{"ha":0,"x_min":0,"x_max":0,"o":""},"!":{"ha":214,"x_min":69,"x_max":144,"o":"m 76 189 l 69 974 l 144 974 l 139 189 l 76 189 m 144 0 l 69 0 l 69 74 l 144 74 l 144 0 z "},"\"":{"ha":290,"x_min":69,"x_max":221,"o":"m 157 853 l 144 946 l 133 853 l 85 853 l 69 974 l 221 974 l 206 853 l 157 853 z "},"#":{"ha":886,"x_min":69,"x_max":817,"o":"m 585 738 l 585 974 l 661 974 l 661 738 l 817 738 l 817 663 l 661 663 l 661 335 l 817 335 l 817 261 l 661 261 l 661 0 l 585 0 l 585 261 l 301 261 l 301 0 l 225 0 l 225 261 l 69 261 l 69 335 l 225 335 l 225 663 l 69 663 l 69 738 l 225 738 l 225 974 l 301 974 l 301 738 l 585 738 m 301 335 l 585 335 l 585 663 l 301 663 l 301 335 z "},"$":{"ha":886,"x_min":69,"x_max":817,"o":"m 683 524 q 735 513 711 524 q 778 485 760 503 q 806 443 796 467 q 817 392 817 419 l 817 132 q 806 81 817 106 q 778 39 796 57 q 735 10 760 21 q 683 0 711 0 l 481 0 l 481 -118 l 406 -118 l 406 0 l 69 0 l 69 74 l 406 74 l 406 450 l 203 450 q 151 460 175 450 q 108 489 126 471 q 80 531 90 507 q 69 582 69 556 l 69 842 q 80 893 69 869 q 108 935 90 917 q 151 963 126 953 q 203 974 175 974 l 406 974 l 406 1093 l 481 1093 l 481 974 l 817 974 l 817 900 l 481 900 l 481 524 l 683 524 m 481 450 l 481 74 l 683 74 q 724 91 707 74 q 742 132 742 108 l 742 392 q 724 433 742 417 q 683 450 707 450 l 481 450 m 406 524 l 406 900 l 203 900 q 162 883 179 900 q 144 842 144 867 l 144 582 q 162 541 144 558 q 203 524 179 524 l 406 524 z "},"%":{"ha":1036,"x_min":69,"x_max":967,"o":"m 167 0 l 69 0 l 869 974 l 967 974 l 167 0 m 338 939 q 436 842 436 939 l 436 746 q 410 675 436 699 q 338 651 385 651 l 218 651 q 144 674 168 651 q 121 746 121 696 l 121 842 q 143 915 121 892 q 218 939 165 939 l 338 939 m 600 129 l 600 226 q 622 299 600 276 q 697 322 644 322 l 818 322 q 915 226 915 322 l 915 129 q 890 60 915 83 q 818 36 864 36 l 697 36 q 624 58 647 36 q 600 129 600 79 m 668 129 q 673 106 668 110 q 697 103 678 103 l 818 103 q 842 107 838 103 q 847 129 847 111 l 847 226 q 842 251 847 246 q 818 256 838 256 l 697 256 q 673 251 678 256 q 668 226 668 246 l 668 129 m 218 871 q 194 866 199 871 q 189 842 189 861 l 189 746 q 193 722 189 726 q 218 718 197 718 l 338 718 q 363 723 357 718 q 368 746 368 728 l 368 842 q 363 866 368 861 q 338 871 357 871 l 218 871 z "},"&":{"ha":1007,"x_min":69,"x_max":936,"o":"m 203 0 q 151 10 175 0 q 108 39 126 21 q 80 81 90 57 q 69 132 69 106 l 69 417 q 84 476 69 449 q 124 522 99 503 q 93 606 93 558 l 93 842 q 103 893 93 869 q 132 935 114 917 q 175 963 150 953 q 228 974 200 974 l 768 974 l 768 900 l 228 900 q 186 883 203 900 q 169 842 169 867 l 169 606 q 186 565 169 582 q 228 547 203 547 l 936 547 l 936 474 l 875 474 q 889 417 889 447 l 889 132 q 878 81 889 106 q 850 39 868 57 q 808 10 832 21 q 756 0 783 0 l 203 0 m 756 74 q 797 91 779 74 q 814 132 814 108 l 814 417 q 797 457 814 440 q 756 474 779 474 l 203 474 q 162 457 179 474 q 144 417 144 440 l 144 132 q 162 91 144 108 q 203 74 179 74 l 756 74 z "},"'":{"ha":218,"x_min":69,"x_max":149,"o":"m 69 974 l 149 974 l 133 853 l 85 853 l 69 974 z "},"(":{"ha":431,"x_min":69,"x_max":361,"o":"m 361 1069 l 361 994 l 347 994 q 268 978 306 994 q 203 935 231 963 q 160 872 176 908 q 144 794 144 836 l 144 179 q 160 101 144 138 q 203 38 176 65 q 268 -5 231 11 q 347 -21 306 -21 l 361 -21 l 361 -94 l 347 -94 q 238 -73 289 -94 q 150 -14 188 -51 q 91 74 113 24 q 69 179 69 124 l 69 794 q 91 900 69 850 q 150 988 113 950 q 238 1047 188 1025 q 347 1069 289 1069 l 361 1069 z "},")":{"ha":431,"x_min":69,"x_max":361,"o":"m 286 179 l 286 794 q 270 872 286 836 q 227 935 254 908 q 163 978 200 963 q 83 994 125 994 l 69 994 l 69 1069 l 83 1069 q 192 1047 142 1069 q 281 988 243 1025 q 340 900 318 950 q 361 794 361 850 l 361 179 q 340 74 361 124 q 281 -14 318 24 q 192 -73 243 -51 q 83 -94 142 -94 l 69 -94 l 69 -21 l 83 -21 q 163 -5 125 -21 q 227 38 200 11 q 270 101 254 65 q 286 179 286 138 z "},"*":{"ha":489,"x_min":69,"x_max":419,"o":"m 282 343 l 207 343 l 207 439 l 111 371 l 69 432 l 181 511 l 69 590 l 111 651 l 207 583 l 207 678 l 282 678 l 282 583 l 376 651 l 419 590 l 308 511 l 419 432 l 376 371 l 282 439 l 282 343 z "},"+":{"ha":526,"x_min":69,"x_max":457,"o":"m 301 481 l 457 481 l 457 406 l 301 406 l 301 253 l 225 253 l 225 406 l 69 406 l 69 481 l 225 481 l 225 635 l 301 635 l 301 481 z "},",":{"ha":218,"x_min":69,"x_max":149,"o":"m 69 -47 l 69 74 l 149 74 l 118 -47 l 69 -47 z "},"-":{"ha":526,"x_min":69,"x_max":457,"o":"m 457 481 l 457 406 l 69 406 l 69 481 l 457 481 z "},".":{"ha":214,"x_min":69,"x_max":144,"o":"m 144 74 l 144 0 l 69 0 l 69 74 l 144 74 z "},"/":{"ha":661,"x_min":69,"x_max":592,"o":"m 69 0 l 508 974 l 592 974 l 153 0 l 69 0 z "},":":{"ha":214,"x_min":69,"x_max":144,"o":"m 144 619 l 144 544 l 69 544 l 69 619 l 144 619 m 69 0 l 69 74 l 144 74 l 144 0 l 69 0 z "},";":{"ha":218,"x_min":69,"x_max":149,"o":"m 69 -47 l 69 74 l 149 74 l 118 -47 l 69 -47 m 144 544 l 69 544 l 69 619 l 144 619 l 144 544 z "},"<":{"ha":557,"x_min":69,"x_max":488,"o":"m 388 667 l 488 667 l 169 333 l 488 0 l 388 0 l 69 333 l 388 667 z "},"=":{"ha":526,"x_min":69,"x_max":457,"o":"m 457 386 l 457 311 l 69 311 l 69 386 l 457 386 m 69 501 l 69 575 l 457 575 l 457 501 l 69 501 z "},">":{"ha":557,"x_min":69,"x_max":488,"o":"m 69 0 l 388 333 l 69 667 l 169 667 l 488 333 l 169 0 l 69 0 z "},"?":{"ha":767,"x_min":69,"x_max":697,"o":"m 563 500 q 604 517 588 500 q 621 558 621 535 l 621 842 q 604 883 621 867 q 563 900 588 900 l 69 900 l 69 974 l 563 974 q 615 963 590 974 q 658 935 640 953 q 687 893 676 917 q 697 842 697 869 l 697 558 q 687 508 697 532 q 658 465 676 483 q 615 437 640 447 q 563 426 590 426 l 324 426 q 282 410 299 426 q 265 368 265 393 l 265 189 l 189 189 l 189 368 q 199 419 189 396 q 228 461 210 443 q 271 490 246 479 q 324 500 296 500 l 563 500 m 189 74 l 265 74 l 265 0 l 189 0 l 189 74 z "},"@":{"ha":1126,"x_min":69,"x_max":1057,"o":"m 576 0 l 347 0 q 238 22 289 0 q 150 81 188 43 q 91 168 113 118 q 69 274 69 218 l 69 700 q 91 806 69 757 q 150 893 113 856 q 238 952 188 931 q 347 974 289 974 l 779 974 q 888 952 838 974 q 976 893 939 931 q 1035 806 1014 856 q 1057 700 1057 757 l 1057 226 q 1047 176 1057 200 q 1018 133 1036 151 q 976 105 1000 115 q 924 94 951 94 q 871 105 896 94 q 828 133 846 115 q 799 176 810 151 q 789 226 789 200 l 789 236 q 660 189 733 189 l 467 189 q 386 205 424 189 q 321 249 349 221 q 277 313 293 276 q 261 392 261 350 l 261 582 q 277 660 261 624 q 321 725 293 697 q 386 769 349 753 q 467 785 424 785 l 660 785 q 740 769 703 785 q 806 725 778 753 q 849 660 833 697 q 865 582 865 624 l 865 226 q 882 186 865 203 q 924 169 899 169 q 964 186 947 169 q 981 226 981 203 l 981 700 q 965 778 981 742 q 922 841 949 814 q 858 884 894 868 q 779 900 821 900 l 347 900 q 268 884 306 900 q 203 841 231 868 q 160 778 176 814 q 144 700 144 742 l 144 274 q 160 196 144 232 q 203 133 176 160 q 268 90 231 106 q 347 74 306 74 l 576 74 l 576 0 m 338 582 l 338 392 q 348 342 338 365 q 376 302 358 319 q 417 274 393 285 q 467 264 440 264 l 660 264 q 710 274 688 264 q 751 302 733 285 q 779 342 769 319 q 789 392 789 365 l 789 582 q 779 632 789 608 q 751 673 769 656 q 710 701 733 690 q 660 711 688 711 l 467 711 q 417 701 440 711 q 376 673 393 690 q 348 632 358 656 q 338 582 338 608 z "},"A":{"ha":1007,"x_min":69,"x_max":936,"o":"m 861 308 l 144 308 l 144 0 l 69 0 l 69 842 q 80 893 69 869 q 108 935 90 917 q 151 963 126 953 q 203 974 175 974 l 803 974 q 855 963 831 974 q 897 935 879 953 q 926 893 915 917 q 936 842 936 869 l 936 0 l 861 0 l 861 308 m 861 382 l 861 842 q 844 883 861 867 q 803 900 828 900 l 203 900 q 162 883 179 900 q 144 842 144 867 l 144 382 l 861 382 z "},"B":{"ha":1007,"x_min":69,"x_max":936,"o":"m 803 0 l 69 0 l 69 974 l 779 974 q 831 963 807 974 q 874 935 856 953 q 902 893 892 917 q 913 842 913 869 l 913 606 q 882 522 913 558 q 936 417 936 481 l 936 132 q 926 81 936 106 q 897 39 915 57 q 855 10 879 21 q 803 0 831 0 m 861 132 l 861 417 q 844 457 861 440 q 803 474 828 474 l 144 474 l 144 74 l 803 74 q 844 91 828 74 q 861 132 861 108 m 838 842 q 820 883 838 867 q 779 900 803 900 l 144 900 l 144 547 l 779 547 q 820 565 803 547 q 838 606 838 582 l 838 842 z "},"C":{"ha":1007,"x_min":69,"x_max":936,"o":"m 203 0 q 151 10 175 0 q 108 39 126 21 q 80 81 90 57 q 69 132 69 106 l 69 842 q 80 893 69 869 q 108 935 90 917 q 151 963 126 953 q 203 974 175 974 l 936 974 l 936 900 l 203 900 q 162 883 179 900 q 144 842 144 867 l 144 132 q 162 91 144 108 q 203 74 179 74 l 936 74 l 936 0 l 203 0 z "},"D":{"ha":1007,"x_min":69,"x_max":936,"o":"m 936 842 l 936 132 q 926 81 936 106 q 897 39 915 57 q 855 10 879 21 q 803 0 831 0 l 69 0 l 69 974 l 803 974 q 855 963 831 974 q 897 935 879 953 q 926 893 915 917 q 936 842 936 869 m 803 900 l 144 900 l 144 74 l 803 74 q 844 91 828 74 q 861 132 861 108 l 861 842 q 844 883 861 867 q 803 900 828 900 z "},"E":{"ha":1007,"x_min":69,"x_max":936,"o":"m 936 474 l 144 474 l 144 132 q 162 91 144 108 q 203 74 179 74 l 936 74 l 936 0 l 203 0 q 151 10 175 0 q 108 39 126 21 q 80 81 90 57 q 69 132 69 106 l 69 842 q 80 893 69 869 q 108 935 90 917 q 151 963 126 953 q 203 974 175 974 l 936 974 l 936 900 l 203 900 q 162 883 179 900 q 144 842 144 867 l 144 547 l 936 547 l 936 474 z "},"F":{"ha":1007,"x_min":69,"x_max":936,"o":"m 936 974 l 936 900 l 203 900 q 162 883 179 900 q 144 842 144 867 l 144 547 l 936 547 l 936 474 l 144 474 l 144 0 l 69 0 l 69 842 q 80 893 69 869 q 108 935 90 917 q 151 963 126 953 q 203 974 175 974 l 936 974 z "},"G":{"ha":1007,"x_min":69,"x_max":936,"o":"m 936 900 l 203 900 q 162 883 179 900 q 144 842 144 867 l 144 132 q 162 91 144 108 q 203 74 179 74 l 803 74 q 844 91 828 74 q 861 132 861 108 l 861 547 l 936 547 l 936 132 q 926 81 936 106 q 897 39 915 57 q 855 10 879 21 q 803 0 831 0 l 203 0 q 151 10 175 0 q 108 39 126 21 q 80 81 90 57 q 69 132 69 106 l 69 842 q 80 893 69 869 q 108 935 90 917 q 151 963 126 953 q 203 974 175 974 l 936 974 l 936 900 z "},"H":{"ha":1007,"x_min":69,"x_max":936,"o":"m 861 474 l 144 474 l 144 0 l 69 0 l 69 974 l 144 974 l 144 547 l 861 547 l 861 974 l 936 974 l 936 0 l 861 0 l 861 474 z "},"I":{"ha":214,"x_min":69,"x_max":144,"o":"m 144 974 l 144 0 l 69 0 l 69 974 l 144 974 z "},"J":{"ha":646,"x_min":69,"x_max":576,"o":"m 69 74 l 443 74 q 485 91 468 74 q 501 132 501 108 l 501 974 l 576 974 l 576 132 q 566 81 576 106 q 538 39 556 57 q 495 10 519 21 q 443 0 471 0 l 69 0 l 69 74 z "},"K":{"ha":908,"x_min":69,"x_max":839,"o":"m 340 533 l 833 0 l 735 0 l 279 482 l 144 363 l 144 0 l 69 0 l 69 974 l 144 974 l 144 460 l 735 974 l 839 974 l 340 533 z "},"L":{"ha":1007,"x_min":69,"x_max":936,"o":"m 144 974 l 144 132 q 162 91 144 108 q 203 74 179 74 l 936 74 l 936 0 l 203 0 q 151 10 175 0 q 108 39 126 21 q 80 81 90 57 q 69 132 69 106 l 69 974 l 144 974 z "},"M":{"ha":1247,"x_min":69,"x_max":1176,"o":"m 656 0 l 590 0 l 144 819 l 144 0 l 69 0 l 69 974 l 149 974 l 624 113 l 1097 974 l 1176 974 l 1176 0 l 1101 0 l 1101 819 l 656 0 z "},"N":{"ha":1126,"x_min":69,"x_max":1057,"o":"m 989 0 l 144 851 l 144 0 l 69 0 l 69 974 l 138 974 l 981 124 l 981 974 l 1057 974 l 1057 0 l 989 0 z "},"O":{"ha":1007,"x_min":69,"x_max":936,"o":"m 936 132 q 926 81 936 106 q 897 39 915 57 q 855 10 879 21 q 803 0 831 0 l 203 0 q 151 10 175 0 q 108 39 126 21 q 80 81 90 57 q 69 132 69 106 l 69 842 q 80 893 69 869 q 108 935 90 917 q 151 963 126 953 q 203 974 175 974 l 803 974 q 855 963 831 974 q 897 935 879 953 q 926 893 915 917 q 936 842 936 869 l 936 132 m 861 842 q 844 883 861 867 q 803 900 828 900 l 203 900 q 162 883 179 900 q 144 842 144 867 l 144 132 q 162 91 144 108 q 203 74 179 74 l 803 74 q 844 91 828 74 q 861 132 861 108 l 861 842 z "},"P":{"ha":1007,"x_min":69,"x_max":936,"o":"m 803 974 q 855 963 831 974 q 897 935 879 953 q 926 893 915 917 q 936 842 936 869 l 936 558 q 926 508 936 532 q 897 465 915 483 q 855 437 879 447 q 803 426 831 426 l 144 426 l 144 0 l 69 0 l 69 974 l 803 974 m 144 900 l 144 500 l 803 500 q 844 517 828 500 q 861 558 861 535 l 861 842 q 844 883 861 867 q 803 900 828 900 l 144 900 z "},"Q":{"ha":1018,"x_min":69,"x_max":949,"o":"m 697 0 l 203 0 q 151 10 175 0 q 108 39 126 21 q 80 81 90 57 q 69 132 69 106 l 69 842 q 80 893 69 869 q 108 935 90 917 q 151 963 126 953 q 203 974 175 974 l 803 974 q 855 963 831 974 q 897 935 879 953 q 926 893 915 917 q 936 842 936 869 l 936 132 q 926 81 936 106 q 897 39 915 57 q 855 10 879 21 q 803 0 831 0 l 790 0 l 949 -237 l 856 -237 l 697 0 m 803 74 q 844 91 828 74 q 861 132 861 108 l 861 842 q 844 883 861 867 q 803 900 828 900 l 203 900 q 162 883 179 900 q 144 842 144 867 l 144 132 q 162 91 144 108 q 203 74 179 74 l 649 74 l 538 240 l 631 240 l 742 74 l 803 74 z "},"R":{"ha":1014,"x_min":69,"x_max":944,"o":"m 936 842 l 936 558 q 926 508 936 532 q 897 465 915 483 q 855 437 879 447 q 803 426 831 426 l 746 426 l 944 0 l 858 0 l 661 426 l 144 426 l 144 0 l 69 0 l 69 974 l 803 974 q 855 963 831 974 q 897 935 879 953 q 926 893 915 917 q 936 842 936 869 m 861 558 l 861 842 q 844 883 861 867 q 803 900 828 900 l 144 900 l 144 500 l 803 500 q 844 517 828 500 q 861 558 861 535 z "},"S":{"ha":1007,"x_min":69,"x_max":936,"o":"m 803 0 l 69 0 l 69 74 l 803 74 q 844 91 828 74 q 861 132 861 108 l 861 417 q 844 457 861 440 q 803 474 828 474 l 203 474 q 151 484 175 474 q 108 513 126 494 q 80 555 90 531 q 69 606 69 579 l 69 842 q 80 893 69 869 q 108 935 90 917 q 151 963 126 953 q 203 974 175 974 l 936 974 l 936 900 l 203 900 q 162 883 179 900 q 144 842 144 867 l 144 606 q 162 565 144 582 q 203 547 179 547 l 803 547 q 855 537 831 547 q 897 508 879 526 q 926 467 915 490 q 936 417 936 443 l 936 132 q 926 81 936 106 q 897 39 915 57 q 855 10 879 21 q 803 0 831 0 z "},"T":{"ha":1007,"x_min":69,"x_max":936,"o":"m 540 0 l 465 0 l 465 900 l 69 900 l 69 974 l 936 974 l 936 900 l 540 900 l 540 0 z "},"U":{"ha":1007,"x_min":69,"x_max":936,"o":"m 861 132 l 861 974 l 936 974 l 936 132 q 926 81 936 106 q 897 39 915 57 q 855 10 879 21 q 803 0 831 0 l 203 0 q 151 10 175 0 q 108 39 126 21 q 80 81 90 57 q 69 132 69 106 l 69 974 l 144 974 l 144 132 q 162 91 144 108 q 203 74 179 74 l 803 74 q 844 91 828 74 q 861 132 861 108 z "},"V":{"ha":1142,"x_min":69,"x_max":1072,"o":"m 604 0 l 539 0 l 69 974 l 153 974 l 571 115 l 989 974 l 1072 974 l 604 0 z "},"W":{"ha":1811,"x_min":69,"x_max":1742,"o":"m 1299 119 l 1660 974 l 1742 974 l 1332 0 l 1267 0 l 906 857 l 546 0 l 479 0 l 69 974 l 151 974 l 513 119 l 872 974 l 939 974 l 1299 119 z "},"X":{"ha":1036,"x_min":69,"x_max":967,"o":"m 567 488 l 967 0 l 869 0 l 518 428 l 167 0 l 69 0 l 469 488 l 69 974 l 167 974 l 518 546 l 869 974 l 967 974 l 567 488 z "},"Y":{"ha":1036,"x_min":69,"x_max":967,"o":"m 167 974 l 518 546 l 869 974 l 967 974 l 556 474 l 556 0 l 481 0 l 481 474 l 69 974 l 167 974 z "},"Z":{"ha":1007,"x_min":69,"x_max":936,"o":"m 936 0 l 69 0 l 69 65 l 825 900 l 69 900 l 69 974 l 936 974 l 936 908 l 181 74 l 936 74 l 936 0 z "},"[":{"ha":431,"x_min":69,"x_max":361,"o":"m 361 1069 l 361 994 l 203 994 q 162 978 179 994 q 144 938 144 961 l 144 38 q 162 -3 144 14 q 203 -21 179 -21 l 361 -21 l 361 -94 l 203 -94 q 151 -84 175 -94 q 108 -56 126 -74 q 80 -13 90 -37 q 69 38 69 11 l 69 938 q 80 989 69 965 q 108 1031 90 1013 q 151 1059 126 1049 q 203 1069 175 1069 l 361 1069 z "},"\\":{"ha":661,"x_min":69,"x_max":592,"o":"m 69 974 l 153 974 l 592 0 l 508 0 l 69 974 z "},"]":{"ha":431,"x_min":69,"x_max":361,"o":"m 286 38 l 286 938 q 269 978 286 961 q 228 994 251 994 l 69 994 l 69 1069 l 228 1069 q 280 1059 256 1069 q 322 1031 304 1049 q 351 989 340 1013 q 361 938 361 965 l 361 38 q 351 -13 361 11 q 322 -56 340 -37 q 280 -84 304 -74 q 228 -94 256 -94 l 69 -94 l 69 -21 l 228 -21 q 269 -3 251 -21 q 286 38 286 14 z "},"_":{"ha":767,"x_min":69,"x_max":697,"o":"m 697 26 l 697 -47 l 69 -47 l 69 26 l 697 26 z "},"`":{"ha":336,"x_min":69,"x_max":267,"o":"m 69 974 l 167 974 l 267 806 l 213 806 l 69 974 z "},"a":{"ha":838,"x_min":69,"x_max":768,"o":"m 693 619 l 693 667 l 768 667 l 768 0 l 693 0 l 693 53 q 628 14 664 28 q 551 0 592 0 l 275 0 q 191 17 229 0 q 126 65 153 35 q 84 133 99 94 q 69 215 69 172 l 69 451 q 84 533 69 494 q 126 602 99 572 q 191 649 153 632 q 275 667 229 667 l 563 667 q 693 619 638 667 m 693 451 q 658 551 693 510 q 563 592 622 592 l 275 592 q 180 551 215 592 q 144 451 144 510 l 144 215 q 180 115 144 157 q 275 74 215 74 l 551 74 q 607 85 581 74 q 652 115 633 96 q 682 160 671 135 q 693 215 693 186 l 693 451 z "},"b":{"ha":838,"x_min":69,"x_max":768,"o":"m 563 667 q 647 651 608 667 q 712 609 685 636 q 753 545 739 582 q 768 464 768 508 l 768 203 q 753 122 768 160 q 712 58 739 85 q 647 15 685 31 q 563 0 608 0 l 275 0 q 144 42 201 0 l 144 0 l 69 0 l 69 974 l 144 974 l 144 625 q 275 667 201 667 l 563 667 m 563 592 l 275 592 q 180 557 215 592 q 144 464 144 522 l 144 203 q 180 109 144 144 q 275 74 215 74 l 563 74 q 658 109 622 74 q 693 203 693 144 l 693 464 q 658 557 693 522 q 563 592 622 592 z "},"c":{"ha":838,"x_min":69,"x_max":768,"o":"m 635 592 l 275 592 q 180 551 215 592 q 144 451 144 510 l 144 215 q 180 115 144 157 q 275 74 215 74 l 635 74 q 676 91 660 74 q 693 132 693 108 l 693 146 l 768 146 l 768 132 q 758 81 768 106 q 729 39 747 57 q 687 10 711 21 q 635 0 663 0 l 275 0 q 191 17 229 0 q 126 65 153 35 q 84 133 99 94 q 69 215 69 172 l 69 451 q 84 533 69 494 q 126 602 99 572 q 191 649 153 632 q 275 667 229 667 l 635 667 q 687 656 663 667 q 729 628 711 646 q 758 586 747 610 q 768 535 768 563 l 768 521 l 693 521 l 693 535 q 676 575 693 558 q 635 592 660 592 z "},"d":{"ha":838,"x_min":69,"x_max":768,"o":"m 693 0 l 693 42 q 563 0 638 0 l 275 0 q 192 15 229 0 q 127 58 154 31 q 85 122 100 85 q 69 203 69 160 l 69 464 q 85 545 69 508 q 127 609 100 582 q 192 651 154 636 q 275 667 229 667 l 563 667 q 693 625 638 667 l 693 974 l 768 974 l 768 0 l 693 0 m 563 592 l 275 592 q 180 557 215 592 q 144 464 144 522 l 144 203 q 180 109 144 144 q 275 74 215 74 l 563 74 q 658 109 622 74 q 693 203 693 144 l 693 464 q 658 557 693 522 q 563 592 622 592 z "},"e":{"ha":838,"x_min":69,"x_max":769,"o":"m 768 481 l 768 296 l 144 296 l 144 185 q 153 142 144 163 q 178 107 163 122 q 214 83 193 92 q 257 74 235 74 l 635 74 q 676 91 660 74 q 693 132 693 108 l 693 146 l 769 146 l 768 132 q 758 81 768 106 q 729 39 747 57 q 687 10 711 21 q 635 0 663 0 l 257 0 q 184 15 218 0 q 124 54 150 29 q 84 113 99 79 q 69 185 69 147 l 69 481 q 84 552 69 518 q 124 612 99 586 q 184 652 150 638 q 257 667 218 667 l 581 667 q 655 652 621 667 q 714 612 689 638 q 753 552 739 586 q 768 481 768 518 m 581 592 l 257 592 q 177 559 210 592 q 144 481 144 526 l 144 371 l 693 371 l 693 481 q 660 559 693 526 q 581 592 628 592 z "},"f":{"ha":838,"x_min":69,"x_max":768,"o":"m 768 900 l 419 900 q 324 859 360 900 q 289 760 289 818 l 289 667 l 768 667 l 768 592 l 289 592 l 289 0 l 214 0 l 214 592 l 69 592 l 69 667 l 214 667 l 214 760 q 228 842 214 803 q 270 910 243 881 q 335 956 297 939 q 419 974 372 974 l 768 974 l 768 900 z "},"g":{"ha":838,"x_min":69,"x_max":768,"o":"m 693 -82 l 693 42 q 563 0 638 0 l 275 0 q 192 15 229 0 q 127 58 154 31 q 85 122 100 85 q 69 203 69 160 l 69 464 q 85 545 69 508 q 127 609 100 582 q 192 651 154 636 q 275 667 229 667 l 563 667 q 693 625 638 667 l 693 667 l 768 667 l 768 -82 q 753 -163 768 -126 q 712 -227 739 -200 q 647 -269 685 -254 q 563 -285 608 -285 l 189 -285 l 189 -210 l 563 -210 q 658 -175 622 -210 q 693 -82 693 -140 m 693 203 l 693 464 q 658 557 693 522 q 563 592 622 592 l 275 592 q 180 557 215 592 q 144 464 144 522 l 144 203 q 180 109 144 144 q 275 74 215 74 l 563 74 q 658 109 622 74 q 693 203 693 144 z "},"h":{"ha":838,"x_min":69,"x_max":768,"o":"m 563 667 q 647 651 608 667 q 712 609 685 636 q 753 545 739 582 q 768 464 768 508 l 768 0 l 693 0 l 693 464 q 658 557 693 522 q 563 592 622 592 l 275 592 q 222 578 246 592 q 180 544 197 565 q 153 497 163 524 q 144 440 144 469 l 144 0 l 69 0 l 69 974 l 144 974 l 144 615 q 205 653 172 639 q 275 667 238 667 l 563 667 z "},"i":{"ha":214,"x_min":69,"x_max":144,"o":"m 69 0 l 69 667 l 144 667 l 144 0 l 69 0 m 144 974 l 144 900 l 69 900 l 69 974 l 144 974 z "},"j":{"ha":358,"x_min":69,"x_max":289,"o":"m 289 -82 q 274 -163 289 -126 q 231 -227 258 -200 q 167 -269 204 -254 q 83 -285 129 -285 l 69 -285 l 69 -210 l 83 -210 q 178 -175 143 -210 q 214 -82 214 -140 l 214 667 l 289 667 l 289 -82 m 214 974 l 289 974 l 289 900 l 214 900 l 214 974 z "},"k":{"ha":869,"x_min":69,"x_max":800,"o":"m 394 397 l 788 0 l 688 0 l 331 356 l 144 239 l 144 0 l 69 0 l 69 667 l 144 667 l 144 326 l 683 667 l 800 667 l 394 397 z "},"l":{"ha":214,"x_min":69,"x_max":144,"o":"m 144 974 l 144 0 l 69 0 l 69 974 l 144 974 z "},"m":{"ha":1463,"x_min":69,"x_max":1393,"o":"m 768 0 l 693 0 l 693 464 q 658 557 693 522 q 563 592 622 592 l 275 592 q 180 557 215 592 q 144 464 144 522 l 144 0 l 69 0 l 69 464 q 85 545 69 508 q 127 609 100 582 q 192 651 154 636 q 275 667 229 667 l 563 667 q 658 647 613 667 q 731 586 703 626 q 804 647 760 626 q 899 667 849 667 l 1188 667 q 1271 651 1233 667 q 1335 609 1308 636 q 1378 545 1363 582 q 1393 464 1393 508 l 1393 0 l 1317 0 l 1317 464 q 1281 557 1317 522 q 1188 592 1246 592 l 899 592 q 803 557 839 592 q 768 464 768 522 l 768 0 z "},"n":{"ha":838,"x_min":69,"x_max":768,"o":"m 768 464 l 768 0 l 693 0 l 693 464 q 658 557 693 522 q 563 592 622 592 l 275 592 q 180 557 215 592 q 144 464 144 522 l 144 0 l 69 0 l 69 464 q 85 545 69 508 q 127 609 100 582 q 192 651 154 636 q 275 667 229 667 l 563 667 q 647 651 608 667 q 712 609 685 636 q 753 545 739 582 q 768 464 768 508 z "},"o":{"ha":838,"x_min":69,"x_max":768,"o":"m 768 203 q 753 122 768 160 q 712 58 739 85 q 647 15 685 31 q 563 0 608 0 l 275 0 q 192 15 229 0 q 127 58 154 31 q 85 122 100 85 q 69 203 69 160 l 69 464 q 85 545 69 508 q 127 609 100 582 q 192 651 154 636 q 275 667 229 667 l 563 667 q 647 651 608 667 q 712 609 685 636 q 753 545 739 582 q 768 464 768 508 l 768 203 m 693 464 q 658 557 693 522 q 563 592 622 592 l 275 592 q 180 557 215 592 q 144 464 144 522 l 144 203 q 180 109 144 144 q 275 74 215 74 l 563 74 q 658 109 622 74 q 693 203 693 144 l 693 464 z "},"p":{"ha":838,"x_min":69,"x_max":768,"o":"m 563 0 l 275 0 q 144 42 201 0 l 144 -285 l 69 -285 l 69 667 l 144 667 l 144 625 q 275 667 201 667 l 563 667 q 647 651 608 667 q 712 609 685 636 q 753 545 739 582 q 768 464 768 508 l 768 203 q 753 122 768 160 q 712 58 739 85 q 647 15 685 31 q 563 0 608 0 m 275 592 q 180 557 215 592 q 144 464 144 522 l 144 203 q 180 109 144 144 q 275 74 215 74 l 563 74 q 658 109 622 74 q 693 203 693 144 l 693 464 q 658 557 693 522 q 563 592 622 592 l 275 592 z "},"q":{"ha":838,"x_min":69,"x_max":768,"o":"m 768 667 l 768 -285 l 693 -285 l 693 42 q 563 0 638 0 l 275 0 q 192 15 229 0 q 127 58 154 31 q 85 122 100 85 q 69 203 69 160 l 69 464 q 85 545 69 508 q 127 609 100 582 q 192 651 154 636 q 275 667 229 667 l 563 667 q 693 625 638 667 l 693 667 l 768 667 m 693 203 l 693 464 q 658 557 693 522 q 563 592 622 592 l 275 592 q 180 557 215 592 q 144 464 144 522 l 144 203 q 180 109 144 144 q 275 74 215 74 l 563 74 q 658 109 622 74 q 693 203 693 144 z "},"r":{"ha":646,"x_min":69,"x_max":576,"o":"m 69 440 q 84 522 69 482 q 125 595 99 563 q 190 647 151 628 q 275 667 228 667 l 576 667 l 576 592 l 275 592 q 222 578 246 592 q 180 544 197 565 q 153 497 163 524 q 144 440 144 469 l 144 0 l 69 0 l 69 440 z "},"s":{"ha":838,"x_min":69,"x_max":769,"o":"m 635 667 q 687 656 663 667 q 729 628 711 646 q 758 586 747 610 q 768 535 768 563 l 769 521 l 693 521 l 693 535 q 676 575 693 558 q 635 592 660 592 l 251 592 q 165 565 186 592 q 144 475 144 539 q 168 394 144 417 q 251 371 192 371 l 588 371 q 728 321 688 371 q 768 179 768 271 q 724 46 768 92 q 588 0 679 0 l 203 0 q 151 10 175 0 q 108 39 126 21 q 80 81 90 57 q 69 132 69 106 l 69 146 l 144 146 l 144 132 q 162 91 144 108 q 203 74 179 74 l 588 74 q 673 101 653 74 q 693 192 693 128 q 669 273 693 250 q 588 296 646 296 l 251 296 q 110 346 151 296 q 69 488 69 396 q 115 621 69 575 q 251 667 160 667 l 635 667 z "},"t":{"ha":838,"x_min":69,"x_max":768,"o":"m 768 0 l 419 0 q 335 17 372 0 q 270 65 297 35 q 228 133 243 94 q 214 215 214 172 l 214 592 l 69 592 l 69 667 l 214 667 l 214 974 l 289 974 l 289 667 l 768 667 l 768 592 l 289 592 l 289 215 q 324 115 289 157 q 419 74 360 74 l 768 74 l 768 0 z "},"u":{"ha":838,"x_min":69,"x_max":768,"o":"m 693 203 l 693 667 l 768 667 l 768 203 q 753 122 768 160 q 712 58 739 85 q 647 15 685 31 q 563 0 608 0 l 275 0 q 192 15 229 0 q 127 58 154 31 q 85 122 100 85 q 69 203 69 160 l 69 667 l 144 667 l 144 203 q 180 109 144 144 q 275 74 215 74 l 563 74 q 658 109 622 74 q 693 203 693 144 z "},"v":{"ha":904,"x_min":69,"x_max":835,"o":"m 485 0 l 419 0 l 69 667 l 153 667 l 451 104 l 750 667 l 835 667 l 485 0 z "},"w":{"ha":1463,"x_min":69,"x_max":1393,"o":"m 899 74 l 1188 74 q 1281 109 1246 74 q 1317 203 1317 144 l 1317 667 l 1393 667 l 1393 203 q 1378 122 1393 160 q 1335 58 1363 85 q 1271 15 1308 31 q 1188 0 1233 0 l 899 0 q 804 20 849 0 q 731 81 760 40 q 658 20 703 40 q 563 0 613 0 l 275 0 q 192 15 229 0 q 127 58 154 31 q 85 122 100 85 q 69 203 69 160 l 69 667 l 144 667 l 144 203 q 180 109 144 144 q 275 74 215 74 l 563 74 q 658 109 622 74 q 693 203 693 144 l 693 667 l 768 667 l 768 203 q 803 109 768 144 q 899 74 839 74 z "},"x":{"ha":874,"x_min":69,"x_max":804,"o":"m 488 333 l 804 0 l 704 0 l 438 281 l 169 0 l 69 0 l 388 333 l 69 667 l 169 667 l 438 386 l 704 667 l 804 667 l 488 333 z "},"y":{"ha":838,"x_min":69,"x_max":768,"o":"m 693 -82 l 693 42 q 563 0 638 0 l 275 0 q 192 15 229 0 q 127 58 154 31 q 85 122 100 85 q 69 203 69 160 l 69 667 l 144 667 l 144 203 q 180 109 144 144 q 275 74 215 74 l 563 74 q 658 109 622 74 q 693 203 693 144 l 693 667 l 768 667 l 768 -82 q 753 -163 768 -126 q 712 -227 739 -200 q 647 -269 685 -254 q 563 -285 608 -285 l 189 -285 l 189 -210 l 563 -210 q 658 -175 622 -210 q 693 -82 693 -140 z "},"z":{"ha":838,"x_min":69,"x_max":768,"o":"m 768 0 l 69 0 l 69 67 l 644 592 l 69 592 l 69 667 l 768 667 l 768 600 l 194 74 l 768 74 l 768 0 z "},"{":{"ha":575,"x_min":69,"x_max":504,"o":"m 492 -21 l 504 -21 l 504 -94 l 492 -94 q 383 -73 433 -94 q 294 -14 332 -51 q 235 74 257 24 q 214 179 214 124 l 214 321 q 203 371 214 347 q 176 412 193 394 q 135 440 158 429 q 83 450 111 450 l 69 450 l 69 524 l 83 524 q 135 534 111 524 q 176 562 158 544 q 203 603 193 579 q 214 653 214 626 l 214 794 q 235 901 214 851 q 294 989 257 951 q 383 1048 332 1026 q 492 1069 433 1069 l 504 1069 l 504 994 l 492 994 q 413 978 450 994 q 348 935 375 963 q 305 872 321 908 q 289 794 289 836 l 289 653 q 265 559 289 603 q 201 488 242 515 q 265 415 242 458 q 289 321 289 371 l 289 179 q 305 101 289 138 q 348 38 321 65 q 413 -5 375 11 q 492 -21 450 -21 z "},"|":{"ha":214,"x_min":69,"x_max":144,"o":"m 144 1093 l 144 -118 l 69 -118 l 69 1093 l 144 1093 z "},"}":{"ha":575,"x_min":69,"x_max":504,"o":"m 286 794 q 270 872 286 836 q 227 935 254 908 q 163 978 200 963 q 83 994 125 994 l 69 994 l 69 1069 l 83 1069 q 192 1048 142 1069 q 281 989 243 1026 q 340 901 318 951 q 361 794 361 851 l 361 653 q 372 603 361 626 q 399 562 382 579 q 441 534 417 544 q 492 524 465 524 l 504 524 l 504 450 l 492 450 q 441 440 465 450 q 399 412 417 429 q 372 371 382 394 q 361 321 361 347 l 361 179 q 340 74 361 124 q 281 -14 318 24 q 192 -73 243 -51 q 83 -94 142 -94 l 69 -94 l 69 -21 l 83 -21 q 163 -5 125 -21 q 227 38 200 11 q 270 101 254 65 q 286 179 286 138 l 286 321 q 309 415 286 371 q 372 488 332 458 q 309 559 332 515 q 286 653 286 603 l 286 794 z "},"~":{"ha":526,"x_min":69,"x_max":457,"o":"m 251 431 q 233 440 242 435 q 217 447 225 444 q 186 454 200 454 q 135 451 165 454 q 90 438 106 447 l 69 424 l 69 500 l 78 504 q 131 519 101 515 q 186 524 161 524 q 236 515 213 524 q 279 497 260 507 q 310 482 290 492 q 340 472 329 472 q 386 474 358 472 q 432 485 414 476 q 447 473 442 482 q 454 454 451 464 q 456 441 456 447 q 457 428 457 435 l 451 424 q 426 413 442 417 q 395 406 411 408 q 365 403 379 404 q 340 403 350 403 q 292 411 314 403 q 251 431 271 419 z "}," ":{"ha":490,"x_min":0,"x_max":0,"o":""},"¡":{"ha":214,"x_min":69,"x_max":144,"o":"m 139 476 l 144 -308 l 69 -308 l 76 476 l 139 476 m 69 667 l 144 667 l 144 592 l 69 592 l 69 667 z "},"¢":{"ha":910,"x_min":69,"x_max":842,"o":"m 639 667 l 746 821 l 842 821 l 726 654 q 784 606 763 639 q 806 535 806 574 l 806 521 l 729 521 l 729 535 q 716 572 729 556 q 682 592 703 588 l 324 74 l 671 74 q 713 91 696 74 q 729 132 729 108 l 729 146 l 806 146 l 806 132 q 795 81 806 106 q 767 39 785 57 q 724 10 749 21 q 671 0 699 0 l 311 0 q 292 1 301 0 q 274 3 283 1 l 165 -154 l 69 -154 l 199 33 q 129 113 153 64 q 106 215 106 163 l 106 451 q 120 533 106 494 q 162 602 135 572 q 227 649 189 632 q 311 667 265 667 l 639 667 m 242 94 l 588 592 l 311 592 q 216 551 251 592 q 181 451 181 510 l 181 215 q 196 147 181 179 q 242 94 211 114 z "},"£":{"ha":886,"x_min":69,"x_max":817,"o":"m 324 974 l 817 974 l 817 900 l 324 900 q 282 883 299 900 q 265 842 265 867 q 267 826 265 831 q 269 815 268 819 q 269 807 269 810 l 279 738 q 300 524 294 631 l 576 524 l 576 450 l 301 450 q 303 435 303 443 q 303 419 303 426 q 299 342 303 389 q 286 248 294 296 q 265 156 278 200 q 236 86 253 113 q 351 94 294 92 q 467 97 408 97 q 635 90 550 97 q 804 74 721 82 l 817 74 l 817 -1 l 801 0 q 634 16 718 8 q 467 24 550 24 q 299 14 383 24 q 132 0 215 4 l 118 -1 l 118 71 l 126 74 q 183 140 163 92 q 213 246 203 189 q 224 359 222 303 q 226 450 226 415 l 69 450 l 69 524 l 225 524 q 204 735 219 628 l 194 804 q 192 821 194 807 q 190 833 190 828 q 189 842 189 838 q 199 893 189 869 q 228 935 210 917 q 271 963 246 953 q 324 974 296 974 z "},"¤":{"ha":500,"x_min":69,"x_max":431,"o":"m 160 322 l 122 285 l 69 338 l 100 368 q 92 414 92 392 l 92 511 q 93 535 92 522 q 100 558 94 547 l 69 589 l 122 642 l 160 604 q 181 607 167 607 l 190 607 l 310 607 l 319 607 q 339 604 333 607 l 378 642 l 431 589 l 399 558 q 408 511 408 539 l 408 414 q 400 368 408 392 l 431 338 l 378 285 l 339 322 q 324 320 332 321 q 310 319 317 319 l 190 319 q 176 320 183 319 q 160 322 168 321 m 310 382 q 338 388 332 382 q 344 414 344 394 l 344 511 q 338 538 344 532 q 310 544 332 544 l 190 544 q 162 538 168 544 q 156 511 156 532 l 156 414 q 161 388 156 393 q 190 382 167 382 l 310 382 z "},"¥":{"ha":911,"x_min":69,"x_max":842,"o":"m 746 974 l 842 974 l 539 539 l 769 539 l 769 465 l 492 465 q 493 437 493 456 q 493 399 493 418 l 493 350 l 769 350 l 769 276 l 493 276 l 493 0 l 418 0 l 418 276 l 142 276 l 142 350 l 418 350 l 418 469 q 363 467 407 469 q 269 465 319 465 l 142 465 l 142 539 l 372 539 l 69 974 l 165 974 l 456 558 l 746 974 z "},"§":{"ha":838,"x_min":69,"x_max":769,"o":"m 251 678 l 588 678 q 728 628 688 678 q 768 488 768 579 q 756 406 768 447 q 711 336 744 364 q 759 264 750 307 q 768 179 768 221 q 724 46 768 92 q 588 0 679 0 l 203 0 q 151 10 175 0 q 108 39 126 21 q 80 81 90 57 q 69 132 69 106 l 69 146 l 144 146 l 144 132 q 162 91 144 108 q 203 74 179 74 l 588 74 q 673 101 653 74 q 693 192 693 128 q 669 273 693 250 q 588 296 646 296 l 251 296 q 110 346 151 296 q 69 488 69 396 q 81 569 69 528 q 128 639 93 610 q 79 711 89 668 q 69 794 69 754 q 251 974 69 974 l 635 974 q 687 963 663 974 q 729 935 711 953 q 758 893 747 917 q 768 842 768 869 l 769 829 l 693 829 l 693 842 q 676 883 693 867 q 635 900 660 900 l 251 900 q 165 873 186 900 q 144 783 144 846 q 168 701 144 725 q 251 678 192 678 m 588 371 q 640 379 619 371 q 673 404 661 388 q 689 444 685 421 q 693 499 693 468 q 669 581 693 557 q 588 604 646 604 l 251 604 q 165 571 186 604 q 144 475 144 538 q 168 394 144 417 q 251 371 192 371 l 588 371 z "},"¨":{"ha":406,"x_min":69,"x_max":338,"o":"m 261 900 l 261 974 l 338 974 l 338 900 l 261 900 m 144 974 l 144 900 l 69 900 l 69 974 l 144 974 z "},"©":{"ha":1126,"x_min":69,"x_max":1057,"o":"m 779 0 l 347 0 q 238 22 289 0 q 150 81 188 43 q 91 168 113 118 q 69 274 69 218 l 69 700 q 91 806 69 757 q 150 893 113 856 q 238 952 188 931 q 347 974 289 974 l 779 974 q 888 952 838 974 q 976 893 939 931 q 1035 806 1014 856 q 1057 700 1057 757 l 1057 274 q 1035 168 1057 218 q 976 81 1014 118 q 888 22 939 43 q 779 0 838 0 m 144 700 l 144 274 q 160 196 144 232 q 203 133 176 160 q 268 90 231 106 q 347 74 306 74 l 779 74 q 858 90 821 74 q 922 133 894 106 q 965 196 949 160 q 981 274 981 232 l 981 700 q 965 778 981 742 q 922 841 949 814 q 858 884 894 868 q 779 900 821 900 l 347 900 q 268 884 306 900 q 203 841 231 868 q 160 778 176 814 q 144 700 144 742 m 467 264 l 660 264 q 710 274 688 264 q 751 302 733 285 q 779 342 769 319 q 789 392 789 365 l 789 406 l 865 406 l 865 392 q 849 313 865 350 q 806 249 833 276 q 740 205 778 221 q 660 189 703 189 l 467 189 q 386 205 424 189 q 321 249 349 221 q 277 313 293 276 q 261 392 261 350 l 261 582 q 277 660 261 624 q 321 725 293 697 q 386 769 349 753 q 467 785 424 785 l 660 785 q 740 769 703 785 q 806 725 778 753 q 849 660 833 697 q 865 582 865 624 l 865 568 l 789 568 l 789 582 q 779 632 789 608 q 751 673 769 656 q 710 701 733 690 q 660 711 688 711 l 467 711 q 417 701 440 711 q 376 673 393 690 q 348 632 358 656 q 338 582 338 608 l 338 392 q 348 342 338 365 q 376 302 358 319 q 417 274 393 285 q 467 264 440 264 z "},"«":{"ha":567,"x_min":69,"x_max":497,"o":"m 165 344 l 354 94 l 257 94 l 69 344 l 257 596 l 354 596 l 165 344 m 214 344 l 401 596 l 497 596 l 310 344 l 497 94 l 401 94 l 214 344 z "},"­":{"ha":0,"x_min":0,"x_max":0,"o":""},"®":{"ha":1126,"x_min":69,"x_max":1057,"o":"m 779 974 q 888 952 838 974 q 976 893 939 931 q 1035 806 1014 856 q 1057 700 1057 757 l 1057 274 q 1035 168 1057 218 q 976 81 1014 118 q 888 22 939 43 q 779 0 838 0 l 347 0 q 238 22 289 0 q 150 81 188 43 q 91 168 113 118 q 69 274 69 218 l 69 700 q 91 806 69 757 q 150 893 113 856 q 238 952 188 931 q 347 974 289 974 l 779 974 m 779 74 q 858 90 821 74 q 922 133 894 106 q 965 196 949 160 q 981 274 981 232 l 981 700 q 965 778 981 742 q 922 841 949 814 q 858 884 894 868 q 779 900 821 900 l 347 900 q 268 884 306 900 q 203 841 231 868 q 160 778 176 814 q 144 700 144 742 l 144 274 q 160 196 144 232 q 203 133 176 160 q 268 90 231 106 q 347 74 306 74 l 779 74 m 338 189 l 261 189 l 261 785 l 660 785 q 740 769 703 785 q 806 725 778 753 q 849 660 833 697 q 865 582 865 624 q 826 463 865 515 q 725 389 788 410 l 879 189 l 786 189 l 640 379 l 338 379 l 338 189 m 789 582 q 779 632 789 608 q 751 673 769 656 q 710 701 733 690 q 660 711 688 711 l 338 711 l 338 453 l 660 453 q 710 463 688 453 q 751 491 733 474 q 779 532 769 508 q 789 582 789 556 z "},"°":{"ha":263,"x_min":69,"x_max":193,"o":"m 193 974 l 193 853 l 69 853 l 69 974 l 193 974 m 157 888 l 157 939 l 106 939 l 106 888 l 157 888 z "},"±":{"ha":526,"x_min":69,"x_max":457,"o":"m 225 450 l 69 450 l 69 524 l 225 524 l 225 678 l 301 678 l 301 524 l 457 524 l 457 450 l 301 450 l 301 296 l 225 296 l 225 450 m 457 178 l 69 178 l 69 251 l 457 251 l 457 178 z "},"²":{"ha":310,"x_min":69,"x_max":240,"o":"m 174 867 q 187 871 185 868 q 189 878 189 874 l 189 914 q 179 924 189 924 l 69 924 l 69 974 l 179 974 q 223 956 206 974 q 240 914 240 938 l 240 878 q 223 835 240 853 q 179 817 206 817 q 170 817 175 817 q 158 818 165 818 l 138 818 q 124 814 126 817 q 121 807 121 811 l 121 771 q 131 761 121 761 l 240 761 l 240 711 l 131 711 q 88 729 106 711 q 69 771 69 747 l 69 807 q 88 850 69 832 q 131 868 106 868 q 140 867 135 868 q 153 867 146 867 l 174 867 z "},"³":{"ha":310,"x_min":69,"x_max":240,"o":"m 240 914 l 240 878 q 229 842 240 861 q 240 807 240 826 l 240 771 q 223 729 240 747 q 179 711 206 711 l 69 711 l 69 761 l 179 761 q 189 771 189 761 l 189 807 q 179 817 189 817 l 69 817 l 69 868 l 179 868 q 189 878 189 868 l 189 914 q 179 924 189 924 l 69 924 l 69 974 l 179 974 q 223 956 206 974 q 240 914 240 938 z "},"´":{"ha":336,"x_min":69,"x_max":267,"o":"m 69 806 l 169 974 l 267 974 l 124 806 l 69 806 z "},"¶":{"ha":886,"x_min":69,"x_max":817,"o":"m 576 -118 l 501 -118 l 501 426 l 203 426 q 151 437 175 426 q 108 465 126 447 q 80 508 90 483 q 69 558 69 532 l 69 842 q 80 893 69 869 q 108 935 90 917 q 151 963 126 953 q 203 974 175 974 l 817 974 l 817 900 l 744 900 l 744 -118 l 669 -118 l 669 900 l 576 900 l 576 -118 m 144 558 q 162 517 144 535 q 203 500 179 500 l 501 500 l 501 900 l 203 900 q 162 883 179 900 q 144 842 144 867 l 144 558 z "},"·":{"ha":214,"x_min":69,"x_max":144,"o":"m 144 547 l 144 474 l 69 474 l 69 547 l 144 547 z "},"¹":{"ha":239,"x_min":69,"x_max":169,"o":"m 69 924 l 69 974 l 169 974 l 169 711 l 118 711 l 118 924 l 69 924 z "},"»":{"ha":567,"x_min":69,"x_max":497,"o":"m 257 344 l 69 596 l 165 596 l 354 344 l 165 94 l 69 94 l 257 344 m 401 344 l 214 596 l 310 596 l 497 344 l 310 94 l 214 94 l 401 344 z "},"¿":{"ha":767,"x_min":69,"x_max":697,"o":"m 576 476 l 576 297 q 566 247 576 271 q 538 204 556 222 q 495 176 519 186 q 443 165 471 165 l 203 165 q 162 149 179 165 q 144 108 144 132 l 144 -176 q 162 -217 144 -200 q 203 -233 179 -233 l 697 -233 l 697 -308 l 203 -308 q 151 -298 175 -308 q 108 -269 126 -287 q 80 -228 90 -251 q 69 -176 69 -204 l 69 108 q 80 160 69 136 q 108 201 90 183 q 151 230 126 219 q 203 240 175 240 l 443 240 q 485 257 468 240 q 501 297 501 274 l 501 476 l 576 476 m 501 667 l 576 667 l 576 592 l 501 592 l 501 667 z "},"À":{"ha":1007,"x_min":69,"x_max":936,"o":"m 936 842 l 936 0 l 861 0 l 861 308 l 144 308 l 144 0 l 69 0 l 69 842 q 80 893 69 869 q 108 935 90 917 q 151 963 126 953 q 203 974 175 974 l 803 974 q 855 963 831 974 q 897 935 879 953 q 926 893 915 917 q 936 842 936 869 m 803 900 l 203 900 q 162 883 179 900 q 144 842 144 867 l 144 382 l 861 382 l 861 842 q 844 883 861 867 q 803 900 828 900 m 544 1042 l 401 1211 l 499 1211 l 599 1042 l 544 1042 z "},"Á":{"ha":1007,"x_min":69,"x_max":936,"o":"m 936 842 l 936 0 l 861 0 l 861 308 l 144 308 l 144 0 l 69 0 l 69 842 q 80 893 69 869 q 108 935 90 917 q 151 963 126 953 q 203 974 175 974 l 803 974 q 855 963 831 974 q 897 935 879 953 q 926 893 915 917 q 936 842 936 869 m 803 900 l 203 900 q 162 883 179 900 q 144 842 144 867 l 144 382 l 861 382 l 861 842 q 844 883 861 867 q 803 900 828 900 m 604 1211 l 461 1042 l 407 1042 l 507 1211 l 604 1211 z "},"Â":{"ha":1007,"x_min":69,"x_max":936,"o":"m 936 842 l 936 0 l 861 0 l 861 308 l 144 308 l 144 0 l 69 0 l 69 842 q 80 893 69 869 q 108 935 90 917 q 151 963 126 953 q 203 974 175 974 l 803 974 q 855 963 831 974 q 897 935 879 953 q 926 893 915 917 q 936 842 936 869 m 803 900 l 203 900 q 162 883 179 900 q 144 842 144 867 l 144 382 l 861 382 l 861 842 q 844 883 861 867 q 803 900 828 900 m 522 1211 l 650 1042 l 567 1042 l 503 1150 l 439 1042 l 356 1042 l 485 1211 l 522 1211 z "},"Ã":{"ha":1007,"x_min":69,"x_max":936,"o":"m 936 842 l 936 0 l 861 0 l 861 308 l 144 308 l 144 0 l 69 0 l 69 842 q 80 893 69 869 q 108 935 90 917 q 151 963 126 953 q 203 974 175 974 l 803 974 q 855 963 831 974 q 897 935 879 953 q 926 893 915 917 q 936 842 936 869 m 803 900 l 203 900 q 162 883 179 900 q 144 842 144 867 l 144 382 l 861 382 l 861 842 q 844 883 861 867 q 803 900 828 900 m 440 1211 q 478 1206 460 1211 q 515 1192 497 1200 q 549 1179 533 1185 q 578 1174 564 1174 q 611 1176 593 1174 q 639 1186 629 1179 l 661 1204 l 661 1135 l 654 1132 q 613 1117 636 1121 q 571 1113 589 1113 q 533 1119 551 1113 q 498 1132 515 1125 q 465 1145 481 1139 q 433 1151 449 1151 q 401 1149 422 1151 q 372 1142 381 1147 q 357 1152 363 1144 q 349 1168 351 1160 q 346 1189 346 1182 l 351 1192 q 397 1207 371 1203 q 440 1211 424 1211 z "},"Ä":{"ha":1007,"x_min":69,"x_max":936,"o":"m 936 842 l 936 0 l 861 0 l 861 308 l 144 308 l 144 0 l 69 0 l 69 842 q 80 893 69 869 q 108 935 90 917 q 151 963 126 953 q 203 974 175 974 l 803 974 q 855 963 831 974 q 897 935 879 953 q 926 893 915 917 q 936 842 936 869 m 803 900 l 203 900 q 162 883 179 900 q 144 842 144 867 l 144 382 l 861 382 l 861 842 q 844 883 861 867 q 803 900 828 900 m 561 1136 l 561 1211 l 636 1211 l 636 1136 l 561 1136 m 444 1136 l 369 1136 l 369 1211 l 444 1211 l 444 1136 z "},"Å":{"ha":1007,"x_min":69,"x_max":936,"o":"m 936 842 l 936 0 l 861 0 l 861 308 l 144 308 l 144 0 l 69 0 l 69 842 q 80 893 69 869 q 108 935 90 917 q 151 963 126 953 q 203 974 175 974 l 803 974 q 855 963 831 974 q 897 935 879 953 q 926 893 915 917 q 936 842 936 869 m 803 900 l 203 900 q 162 883 179 900 q 144 842 144 867 l 144 382 l 861 382 l 861 842 q 844 883 861 867 q 803 900 828 900 m 589 1126 q 564 1067 589 1092 q 503 1042 539 1042 q 442 1067 467 1042 q 418 1126 418 1092 q 442 1186 418 1161 q 503 1211 467 1211 q 564 1186 539 1211 q 589 1126 589 1161 m 475 1126 q 483 1107 475 1115 q 503 1099 492 1099 q 523 1107 514 1099 q 532 1126 532 1115 q 523 1146 532 1138 q 503 1154 514 1154 q 483 1146 492 1154 q 475 1126 475 1138 z "},"Æ":{"ha":1797,"x_min":69,"x_max":1728,"o":"m 861 308 l 144 308 l 144 0 l 69 0 l 69 842 q 80 893 69 869 q 108 935 90 917 q 151 963 126 953 q 203 974 175 974 l 803 974 q 899 933 858 974 q 994 974 939 974 l 1728 974 l 1728 900 l 994 900 q 953 883 971 900 q 936 842 936 867 l 936 547 l 1728 547 l 1728 474 l 936 474 l 936 132 q 953 91 936 108 q 994 74 971 74 l 1728 74 l 1728 0 l 994 0 q 942 10 967 0 q 900 39 918 21 q 872 81 882 57 q 861 132 861 106 l 861 308 m 144 842 l 144 382 l 861 382 l 861 842 q 844 883 861 867 q 803 900 828 900 l 203 900 q 162 883 179 900 q 144 842 144 867 z "},"Ç":{"ha":1007,"x_min":69,"x_max":936,"o":"m 456 -144 l 471 -156 q 492 -162 482 -162 q 515 -153 506 -162 q 525 -129 525 -143 q 507 -99 525 -104 q 469 -94 489 -94 l 424 -94 l 456 0 l 203 0 q 151 10 175 0 q 108 39 126 21 q 80 81 90 57 q 69 132 69 106 l 69 842 q 80 893 69 869 q 108 935 90 917 q 151 963 126 953 q 203 974 175 974 l 936 974 l 936 900 l 203 900 q 162 883 179 900 q 144 842 144 867 l 144 132 q 162 91 144 108 q 203 74 179 74 l 936 74 l 936 0 l 533 0 l 525 -26 q 580 -65 558 -37 q 601 -129 601 -93 q 569 -206 601 -174 q 492 -237 538 -237 q 465 -234 478 -237 q 440 -225 451 -231 l 431 -219 l 456 -144 z "},"È":{"ha":1007,"x_min":69,"x_max":936,"o":"m 936 474 l 144 474 l 144 132 q 162 91 144 108 q 203 74 179 74 l 936 74 l 936 0 l 203 0 q 151 10 175 0 q 108 39 126 21 q 80 81 90 57 q 69 132 69 106 l 69 842 q 80 893 69 869 q 108 935 90 917 q 151 963 126 953 q 203 974 175 974 l 936 974 l 936 900 l 203 900 q 162 883 179 900 q 144 842 144 867 l 144 547 l 936 547 l 936 474 m 401 1211 l 499 1211 l 599 1042 l 544 1042 l 401 1211 z "},"É":{"ha":1007,"x_min":69,"x_max":936,"o":"m 936 474 l 144 474 l 144 132 q 162 91 144 108 q 203 74 179 74 l 936 74 l 936 0 l 203 0 q 151 10 175 0 q 108 39 126 21 q 80 81 90 57 q 69 132 69 106 l 69 842 q 80 893 69 869 q 108 935 90 917 q 151 963 126 953 q 203 974 175 974 l 936 974 l 936 900 l 203 900 q 162 883 179 900 q 144 842 144 867 l 144 547 l 936 547 l 936 474 m 407 1042 l 507 1211 l 604 1211 l 461 1042 l 407 1042 z "},"Ê":{"ha":1007,"x_min":69,"x_max":936,"o":"m 936 900 l 203 900 q 162 883 179 900 q 144 842 144 867 l 144 547 l 936 547 l 936 474 l 144 474 l 144 132 q 162 91 144 108 q 203 74 179 74 l 936 74 l 936 0 l 203 0 q 151 10 175 0 q 108 39 126 21 q 80 81 90 57 q 69 132 69 106 l 69 842 q 80 893 69 869 q 108 935 90 917 q 151 963 126 953 q 203 974 175 974 l 936 974 l 936 900 m 356 1042 l 485 1211 l 522 1211 l 650 1042 l 567 1042 l 503 1150 l 439 1042 l 356 1042 z "},"Ë":{"ha":1007,"x_min":69,"x_max":936,"o":"m 936 0 l 203 0 q 151 10 175 0 q 108 39 126 21 q 80 81 90 57 q 69 132 69 106 l 69 842 q 80 893 69 869 q 108 935 90 917 q 151 963 126 953 q 203 974 175 974 l 936 974 l 936 900 l 203 900 q 162 883 179 900 q 144 842 144 867 l 144 547 l 936 547 l 936 474 l 144 474 l 144 132 q 162 91 144 108 q 203 74 179 74 l 936 74 l 936 0 m 561 1136 l 561 1211 l 636 1211 l 636 1136 l 561 1136 m 369 1136 l 369 1211 l 444 1211 l 444 1136 l 369 1136 z "},"Ì":{"ha":336,"x_min":69,"x_max":267,"o":"m 257 974 l 257 0 l 181 0 l 181 974 l 257 974 m 267 1042 l 213 1042 l 69 1211 l 167 1211 l 267 1042 z "},"Í":{"ha":336,"x_min":69,"x_max":267,"o":"m 156 974 l 156 0 l 79 0 l 79 974 l 156 974 m 124 1042 l 69 1042 l 169 1211 l 267 1211 l 124 1042 z "},"Î":{"ha":433,"x_min":69,"x_max":364,"o":"m 254 0 l 179 0 l 179 974 l 254 974 l 254 0 m 364 1042 l 281 1042 l 217 1150 l 153 1042 l 69 1042 l 197 1211 l 236 1211 l 364 1042 z "},"Ï":{"ha":406,"x_min":69,"x_max":338,"o":"m 240 974 l 240 0 l 165 0 l 165 974 l 240 974 m 338 1211 l 338 1136 l 261 1136 l 261 1211 l 338 1211 m 144 1211 l 144 1136 l 69 1136 l 69 1211 l 144 1211 z "},"Ð":{"ha":1126,"x_min":69,"x_max":1057,"o":"m 1057 842 l 1057 132 q 1047 81 1057 106 q 1018 39 1036 57 q 976 10 1000 21 q 924 0 951 0 l 189 0 l 189 474 l 69 474 l 69 547 l 189 547 l 189 974 l 924 974 q 976 963 951 974 q 1018 935 1000 953 q 1047 893 1036 917 q 1057 842 1057 869 m 265 900 l 265 547 l 576 547 l 576 474 l 265 474 l 265 74 l 924 74 q 964 91 947 74 q 981 132 981 108 l 981 842 q 964 883 981 867 q 924 900 947 900 l 265 900 z "},"Ñ":{"ha":1126,"x_min":69,"x_max":1057,"o":"m 1057 974 l 1057 0 l 989 0 l 144 851 l 144 0 l 69 0 l 69 974 l 138 974 l 981 124 l 981 974 l 1057 974 m 557 1133 q 524 1146 540 1140 q 493 1151 508 1151 q 462 1149 483 1151 q 432 1142 440 1147 q 417 1152 422 1144 q 408 1168 411 1160 q 406 1189 406 1182 l 413 1192 q 457 1207 431 1203 q 501 1211 483 1211 q 539 1205 521 1211 q 575 1190 557 1199 q 608 1178 593 1183 q 638 1174 622 1174 q 671 1176 653 1174 q 699 1186 689 1179 l 721 1204 l 721 1135 l 714 1132 q 672 1117 696 1121 q 631 1113 649 1113 q 593 1119 611 1113 q 557 1133 575 1126 z "},"Ò":{"ha":1007,"x_min":69,"x_max":936,"o":"m 936 842 l 936 132 q 926 81 936 106 q 897 39 915 57 q 855 10 879 21 q 803 0 831 0 l 203 0 q 151 10 175 0 q 108 39 126 21 q 80 81 90 57 q 69 132 69 106 l 69 842 q 80 893 69 869 q 108 935 90 917 q 151 963 126 953 q 203 974 175 974 l 803 974 q 855 963 831 974 q 897 935 879 953 q 926 893 915 917 q 936 842 936 869 m 803 900 l 203 900 q 162 883 179 900 q 144 842 144 867 l 144 132 q 162 91 144 108 q 203 74 179 74 l 803 74 q 844 91 828 74 q 861 132 861 108 l 861 842 q 844 883 861 867 q 803 900 828 900 m 544 1042 l 401 1211 l 499 1211 l 599 1042 l 544 1042 z "},"Ó":{"ha":1007,"x_min":69,"x_max":936,"o":"m 936 842 l 936 132 q 926 81 936 106 q 897 39 915 57 q 855 10 879 21 q 803 0 831 0 l 203 0 q 151 10 175 0 q 108 39 126 21 q 80 81 90 57 q 69 132 69 106 l 69 842 q 80 893 69 869 q 108 935 90 917 q 151 963 126 953 q 203 974 175 974 l 803 974 q 855 963 831 974 q 897 935 879 953 q 926 893 915 917 q 936 842 936 869 m 803 900 l 203 900 q 162 883 179 900 q 144 842 144 867 l 144 132 q 162 91 144 108 q 203 74 179 74 l 803 74 q 844 91 828 74 q 861 132 861 108 l 861 842 q 844 883 861 867 q 803 900 828 900 m 632 1211 l 490 1042 l 436 1042 l 535 1211 l 632 1211 z "},"Ô":{"ha":1007,"x_min":69,"x_max":936,"o":"m 936 842 l 936 132 q 926 81 936 106 q 897 39 915 57 q 855 10 879 21 q 803 0 831 0 l 203 0 q 151 10 175 0 q 108 39 126 21 q 80 81 90 57 q 69 132 69 106 l 69 842 q 80 893 69 869 q 108 935 90 917 q 151 963 126 953 q 203 974 175 974 l 803 974 q 855 963 831 974 q 897 935 879 953 q 926 893 915 917 q 936 842 936 869 m 803 900 l 203 900 q 162 883 179 900 q 144 842 144 867 l 144 132 q 162 91 144 108 q 203 74 179 74 l 803 74 q 844 91 828 74 q 861 132 861 108 l 861 842 q 844 883 861 867 q 803 900 828 900 m 522 1211 l 650 1042 l 567 1042 l 503 1150 l 439 1042 l 356 1042 l 485 1211 l 522 1211 z "},"Õ":{"ha":1007,"x_min":69,"x_max":936,"o":"m 803 0 l 203 0 q 151 10 175 0 q 108 39 126 21 q 80 81 90 57 q 69 132 69 106 l 69 842 q 80 893 69 869 q 108 935 90 917 q 151 963 126 953 q 203 974 175 974 l 803 974 q 855 963 831 974 q 897 935 879 953 q 926 893 915 917 q 936 842 936 869 l 936 132 q 926 81 936 106 q 897 39 915 57 q 855 10 879 21 q 803 0 831 0 m 861 132 l 861 842 q 844 883 861 867 q 803 900 828 900 l 203 900 q 162 883 179 900 q 144 842 144 867 l 144 132 q 162 91 144 108 q 203 74 179 74 l 803 74 q 844 91 828 74 q 861 132 861 108 m 440 1211 q 478 1206 460 1211 q 515 1192 497 1200 q 549 1179 533 1185 q 578 1174 564 1174 q 611 1176 593 1174 q 639 1186 629 1179 l 661 1204 l 661 1135 l 654 1132 q 613 1117 636 1121 q 571 1113 589 1113 q 533 1119 551 1113 q 498 1132 515 1125 q 465 1145 481 1139 q 433 1151 449 1151 q 401 1149 422 1151 q 372 1142 381 1147 q 357 1152 363 1144 q 349 1168 351 1160 q 346 1189 346 1182 l 351 1192 q 397 1207 371 1203 q 440 1211 424 1211 z "},"Ö":{"ha":1007,"x_min":69,"x_max":936,"o":"m 803 0 l 203 0 q 151 10 175 0 q 108 39 126 21 q 80 81 90 57 q 69 132 69 106 l 69 842 q 80 893 69 869 q 108 935 90 917 q 151 963 126 953 q 203 974 175 974 l 803 974 q 855 963 831 974 q 897 935 879 953 q 926 893 915 917 q 936 842 936 869 l 936 132 q 926 81 936 106 q 897 39 915 57 q 855 10 879 21 q 803 0 831 0 m 803 900 l 203 900 q 162 883 179 900 q 144 842 144 867 l 144 132 q 162 91 144 108 q 203 74 179 74 l 803 74 q 844 91 828 74 q 861 132 861 108 l 861 842 q 844 883 861 867 q 803 900 828 900 m 561 1136 l 561 1211 l 636 1211 l 636 1136 l 561 1136 m 444 1136 l 369 1136 l 369 1211 l 444 1211 l 444 1136 z "},"×":{"ha":500,"x_min":69,"x_max":431,"o":"m 303 443 l 431 318 l 378 265 l 250 390 l 122 265 l 69 318 l 197 443 l 69 568 l 122 621 l 250 496 l 378 621 l 431 568 l 303 443 z "},"Ø":{"ha":1036,"x_min":69,"x_max":967,"o":"m 218 0 q 174 8 194 0 l 167 0 l 69 0 l 113 51 q 85 132 85 88 l 85 842 q 95 893 85 869 q 124 935 106 917 q 166 963 142 953 q 218 974 190 974 l 818 974 q 863 967 838 974 l 869 974 l 967 974 l 924 922 q 951 842 951 886 l 951 132 q 941 81 951 106 q 913 39 931 57 q 870 10 894 21 q 818 0 846 0 l 218 0 m 228 74 l 818 74 q 859 91 842 74 q 876 132 876 108 l 876 842 q 876 851 876 847 q 874 861 875 856 l 228 74 m 160 842 l 160 132 q 163 114 160 128 l 808 900 l 218 900 q 176 883 193 900 q 160 842 160 867 z "},"Ù":{"ha":1007,"x_min":69,"x_max":936,"o":"m 936 974 l 936 132 q 926 81 936 106 q 897 39 915 57 q 855 10 879 21 q 803 0 831 0 l 203 0 q 151 10 175 0 q 108 39 126 21 q 80 81 90 57 q 69 132 69 106 l 69 974 l 144 974 l 144 132 q 162 91 144 108 q 203 74 179 74 l 803 74 q 844 91 828 74 q 861 132 861 108 l 861 974 l 936 974 m 401 1211 l 499 1211 l 599 1042 l 544 1042 l 401 1211 z "},"Ú":{"ha":1007,"x_min":69,"x_max":936,"o":"m 936 974 l 936 132 q 926 81 936 106 q 897 39 915 57 q 855 10 879 21 q 803 0 831 0 l 203 0 q 151 10 175 0 q 108 39 126 21 q 80 81 90 57 q 69 132 69 106 l 69 974 l 144 974 l 144 132 q 162 91 144 108 q 203 74 179 74 l 803 74 q 844 91 828 74 q 861 132 861 108 l 861 974 l 936 974 m 507 1211 l 604 1211 l 461 1042 l 407 1042 l 507 1211 z "},"Û":{"ha":1007,"x_min":69,"x_max":936,"o":"m 861 132 l 861 974 l 936 974 l 936 132 q 926 81 936 106 q 897 39 915 57 q 855 10 879 21 q 803 0 831 0 l 203 0 q 151 10 175 0 q 108 39 126 21 q 80 81 90 57 q 69 132 69 106 l 69 974 l 144 974 l 144 132 q 162 91 144 108 q 203 74 179 74 l 803 74 q 844 91 828 74 q 861 132 861 108 m 567 1042 l 503 1150 l 439 1042 l 356 1042 l 485 1211 l 522 1211 l 650 1042 l 567 1042 z "},"Ü":{"ha":1007,"x_min":69,"x_max":936,"o":"m 861 132 l 861 974 l 936 974 l 936 132 q 926 81 936 106 q 897 39 915 57 q 855 10 879 21 q 803 0 831 0 l 203 0 q 151 10 175 0 q 108 39 126 21 q 80 81 90 57 q 69 132 69 106 l 69 974 l 144 974 l 144 132 q 162 91 144 108 q 203 74 179 74 l 803 74 q 844 91 828 74 q 861 132 861 108 m 444 1211 l 444 1136 l 369 1136 l 369 1211 l 444 1211 m 561 1211 l 636 1211 l 636 1136 l 561 1136 l 561 1211 z "},"Ý":{"ha":1036,"x_min":69,"x_max":967,"o":"m 869 974 l 967 974 l 556 474 l 556 0 l 481 0 l 481 474 l 69 974 l 167 974 l 518 546 l 869 974 m 619 1211 l 476 1042 l 422 1042 l 522 1211 l 619 1211 z "},"Þ":{"ha":1007,"x_min":69,"x_max":936,"o":"m 936 344 q 926 294 936 318 q 897 251 915 269 q 855 223 879 233 q 803 213 831 213 l 144 213 l 144 0 l 69 0 l 69 974 l 144 974 l 144 761 l 803 761 q 855 751 831 761 q 897 722 879 740 q 926 681 915 704 q 936 629 936 657 l 936 344 m 861 629 q 844 669 861 653 q 803 686 828 686 l 144 686 l 144 288 l 803 288 q 844 304 828 288 q 861 344 861 321 l 861 629 z "},"ß":{"ha":767,"x_min":69,"x_max":697,"o":"m 407 547 q 502 589 467 547 q 538 689 538 631 l 538 760 q 502 859 538 818 q 407 900 467 900 l 275 900 q 180 859 215 900 q 144 760 144 818 l 144 0 l 69 0 l 69 760 q 84 842 69 803 q 126 910 99 881 q 191 956 153 939 q 275 974 229 974 l 407 974 q 492 956 454 974 q 556 910 529 939 q 598 842 583 881 q 613 760 613 803 l 613 689 q 599 608 613 647 q 556 538 585 569 q 660 458 624 515 q 697 333 697 401 l 697 215 q 683 133 697 172 q 641 65 668 94 q 576 17 614 35 q 492 0 538 0 l 394 0 q 342 10 367 0 q 300 39 318 21 q 272 81 282 57 q 261 132 261 106 l 261 146 l 338 146 l 338 132 q 354 91 338 108 q 394 74 371 74 l 492 74 q 586 115 551 74 q 621 215 621 157 l 621 333 q 586 433 621 392 q 492 474 551 474 l 393 474 l 393 547 l 407 547 z "},"à":{"ha":838,"x_min":69,"x_max":768,"o":"m 551 0 l 275 0 q 191 17 229 0 q 126 65 153 35 q 84 133 99 94 q 69 215 69 172 l 69 451 q 84 533 69 494 q 126 602 99 572 q 191 649 153 632 q 275 667 229 667 l 563 667 q 693 619 638 667 l 693 667 l 768 667 l 768 0 l 693 0 l 693 53 q 628 14 664 28 q 551 0 592 0 m 693 215 l 693 451 q 658 551 693 510 q 563 592 622 592 l 275 592 q 180 551 215 592 q 144 451 144 510 l 144 215 q 180 115 144 157 q 275 74 215 74 l 551 74 q 607 85 581 74 q 652 115 633 96 q 682 160 671 135 q 693 215 693 186 m 436 806 l 294 974 l 392 974 l 490 806 l 436 806 z "},"á":{"ha":838,"x_min":69,"x_max":768,"o":"m 551 0 l 275 0 q 191 17 229 0 q 126 65 153 35 q 84 133 99 94 q 69 215 69 172 l 69 451 q 84 533 69 494 q 126 602 99 572 q 191 649 153 632 q 275 667 229 667 l 563 667 q 693 619 638 667 l 693 667 l 768 667 l 768 0 l 693 0 l 693 53 q 628 14 664 28 q 551 0 592 0 m 693 215 l 693 451 q 658 551 693 510 q 563 592 622 592 l 275 592 q 180 551 215 592 q 144 451 144 510 l 144 215 q 180 115 144 157 q 275 74 215 74 l 551 74 q 607 85 581 74 q 652 115 633 96 q 682 160 671 135 q 693 215 693 186 m 544 974 l 401 806 l 347 806 l 447 974 l 544 974 z "},"â":{"ha":838,"x_min":69,"x_max":768,"o":"m 768 667 l 768 0 l 693 0 l 693 53 q 628 14 664 28 q 551 0 592 0 l 275 0 q 191 17 229 0 q 126 65 153 35 q 84 133 99 94 q 69 215 69 172 l 69 451 q 84 533 69 494 q 126 602 99 572 q 191 649 153 632 q 275 667 229 667 l 563 667 q 693 619 638 667 l 693 667 l 768 667 m 693 451 q 658 551 693 510 q 563 592 622 592 l 275 592 q 180 551 215 592 q 144 451 144 510 l 144 215 q 180 115 144 157 q 275 74 215 74 l 551 74 q 607 85 581 74 q 652 115 633 96 q 682 160 671 135 q 693 215 693 186 l 693 451 m 417 974 l 544 806 l 461 806 l 397 914 l 333 806 l 250 806 l 379 974 l 417 974 z "},"ã":{"ha":838,"x_min":69,"x_max":768,"o":"m 563 667 q 693 619 638 667 l 693 667 l 768 667 l 768 0 l 693 0 l 693 53 q 628 14 664 28 q 551 0 592 0 l 275 0 q 191 17 229 0 q 126 65 153 35 q 84 133 99 94 q 69 215 69 172 l 69 451 q 84 533 69 494 q 126 602 99 572 q 191 649 153 632 q 275 667 229 667 l 563 667 m 551 74 q 607 85 581 74 q 652 115 633 96 q 682 160 671 135 q 693 215 693 186 l 693 451 q 658 551 693 510 q 563 592 622 592 l 275 592 q 180 551 215 592 q 144 451 144 510 l 144 215 q 180 115 144 157 q 275 74 215 74 l 551 74 m 576 968 l 576 899 l 569 894 q 528 880 553 883 q 486 876 504 876 q 449 883 467 876 q 413 896 431 889 q 381 908 396 903 q 350 914 365 914 q 318 913 339 914 q 288 904 297 911 q 272 915 278 907 q 264 931 267 922 q 261 951 261 944 l 268 956 q 313 970 286 967 q 357 974 339 974 q 394 967 376 974 q 432 954 413 961 q 463 942 449 947 q 493 936 478 936 q 527 940 508 936 q 554 950 546 943 l 576 968 z "},"ä":{"ha":838,"x_min":69,"x_max":768,"o":"m 693 619 l 693 667 l 768 667 l 768 0 l 693 0 l 693 53 q 628 14 664 28 q 551 0 592 0 l 275 0 q 191 17 229 0 q 126 65 153 35 q 84 133 99 94 q 69 215 69 172 l 69 451 q 84 533 69 494 q 126 602 99 572 q 191 649 153 632 q 275 667 229 667 l 563 667 q 693 619 638 667 m 563 592 l 275 592 q 180 551 215 592 q 144 451 144 510 l 144 215 q 180 115 144 157 q 275 74 215 74 l 551 74 q 607 85 581 74 q 652 115 633 96 q 682 160 671 135 q 693 215 693 186 l 693 451 q 658 551 693 510 q 563 592 622 592 m 478 974 l 553 974 l 553 900 l 478 900 l 478 974 m 361 900 l 286 900 l 286 974 l 361 974 l 361 900 z "},"å":{"ha":838,"x_min":69,"x_max":768,"o":"m 693 619 l 693 667 l 768 667 l 768 0 l 693 0 l 693 53 q 628 14 664 28 q 551 0 592 0 l 275 0 q 191 17 229 0 q 126 65 153 35 q 84 133 99 94 q 69 215 69 172 l 69 451 q 84 533 69 494 q 126 602 99 572 q 191 649 153 632 q 275 667 229 667 l 563 667 q 693 619 638 667 m 563 592 l 275 592 q 180 551 215 592 q 144 451 144 510 l 144 215 q 180 115 144 157 q 275 74 215 74 l 551 74 q 607 85 581 74 q 652 115 633 96 q 682 160 671 135 q 693 215 693 186 l 693 451 q 658 551 693 510 q 563 592 622 592 m 504 890 q 480 830 504 854 q 419 806 456 806 q 358 830 383 806 q 333 890 333 854 q 358 949 333 925 q 419 974 383 974 q 480 949 456 974 q 504 890 504 925 m 390 890 q 399 869 390 878 q 419 861 408 861 q 439 869 431 861 q 447 890 447 878 q 439 910 447 901 q 419 918 431 918 q 399 910 408 918 q 390 890 390 901 z "},"æ":{"ha":1463,"x_min":69,"x_max":1393,"o":"m 1393 146 l 1393 132 q 1383 81 1393 106 q 1354 39 1372 57 q 1311 10 1336 21 q 1258 0 1286 0 l 881 0 q 768 38 821 0 l 768 0 l 693 0 l 693 53 q 628 14 664 28 q 551 0 592 0 l 275 0 q 191 17 229 0 q 126 65 153 35 q 84 133 99 94 q 69 215 69 172 l 69 451 q 84 533 69 494 q 126 602 99 572 q 191 649 153 632 q 275 667 229 667 l 563 667 q 655 645 613 667 q 726 585 697 624 q 793 644 753 622 q 881 667 833 667 l 1206 667 q 1278 652 1244 667 q 1338 612 1313 638 q 1378 552 1364 586 q 1393 481 1393 518 l 1393 296 l 768 296 l 768 185 q 777 142 768 163 q 801 107 786 122 q 838 83 817 92 q 881 74 858 74 l 1258 74 q 1300 91 1283 74 q 1317 132 1317 108 l 1317 146 l 1393 146 m 275 592 q 180 551 215 592 q 144 451 144 510 l 144 215 q 180 115 144 157 q 275 74 215 74 l 551 74 q 607 85 581 74 q 652 115 633 96 q 682 160 671 135 q 693 215 693 186 l 693 451 q 658 551 693 510 q 563 592 622 592 l 275 592 m 1317 481 q 1284 559 1317 526 q 1206 592 1251 592 l 881 592 q 801 559 835 592 q 768 481 768 526 l 768 371 l 1317 371 l 1317 481 z "},"ç":{"ha":838,"x_min":69,"x_max":768,"o":"m 408 0 l 275 0 q 191 17 229 0 q 126 65 153 35 q 84 133 99 94 q 69 215 69 172 l 69 451 q 84 533 69 494 q 126 602 99 572 q 191 649 153 632 q 275 667 229 667 l 635 667 q 687 656 663 667 q 729 628 711 646 q 758 586 747 610 q 768 535 768 563 l 768 521 l 693 521 l 693 535 q 676 575 693 558 q 635 592 660 592 l 275 592 q 180 551 215 592 q 144 451 144 510 l 144 215 q 180 115 144 157 q 275 74 215 74 l 635 74 q 676 91 660 74 q 693 132 693 108 l 693 146 l 768 146 l 768 132 q 758 81 768 106 q 729 39 747 57 q 687 10 711 21 q 635 0 663 0 l 485 0 l 476 -26 q 531 -65 510 -37 q 553 -129 553 -93 q 521 -206 553 -174 q 443 -237 489 -237 q 417 -234 429 -237 q 392 -225 404 -231 l 382 -219 l 407 -144 l 422 -156 q 443 -162 433 -162 q 468 -153 458 -162 q 478 -129 478 -143 q 459 -99 478 -103 q 421 -94 440 -94 l 376 -94 l 408 0 z "},"è":{"ha":838,"x_min":69,"x_max":769,"o":"m 769 146 l 768 132 q 758 81 768 106 q 729 39 747 57 q 687 10 711 21 q 635 0 663 0 l 257 0 q 184 15 218 0 q 124 54 150 29 q 84 113 99 79 q 69 185 69 147 l 69 481 q 84 552 69 518 q 124 612 99 586 q 184 652 150 638 q 257 667 218 667 l 581 667 q 655 652 621 667 q 714 612 689 638 q 753 552 739 586 q 768 481 768 518 l 768 296 l 144 296 l 144 185 q 153 142 144 163 q 178 107 163 122 q 214 83 193 92 q 257 74 235 74 l 635 74 q 676 91 660 74 q 693 132 693 108 l 693 146 l 769 146 m 581 592 l 257 592 q 177 559 210 592 q 144 481 144 526 l 144 371 l 693 371 l 693 481 q 660 559 693 526 q 581 592 628 592 m 294 974 l 392 974 l 490 806 l 436 806 l 294 974 z "},"é":{"ha":838,"x_min":69,"x_max":769,"o":"m 769 146 l 768 132 q 758 81 768 106 q 729 39 747 57 q 687 10 711 21 q 635 0 663 0 l 257 0 q 184 15 218 0 q 124 54 150 29 q 84 113 99 79 q 69 185 69 147 l 69 481 q 84 552 69 518 q 124 612 99 586 q 184 652 150 638 q 257 667 218 667 l 581 667 q 655 652 621 667 q 714 612 689 638 q 753 552 739 586 q 768 481 768 518 l 768 296 l 144 296 l 144 185 q 153 142 144 163 q 178 107 163 122 q 214 83 193 92 q 257 74 235 74 l 635 74 q 676 91 660 74 q 693 132 693 108 l 693 146 l 769 146 m 581 592 l 257 592 q 177 559 210 592 q 144 481 144 526 l 144 371 l 693 371 l 693 481 q 660 559 693 526 q 581 592 628 592 m 347 806 l 447 974 l 544 974 l 401 806 l 347 806 z "},"ê":{"ha":838,"x_min":69,"x_max":769,"o":"m 768 481 l 768 296 l 144 296 l 144 185 q 153 142 144 163 q 178 107 163 122 q 214 83 193 92 q 257 74 235 74 l 635 74 q 676 91 660 74 q 693 132 693 108 l 693 146 l 769 146 l 768 132 q 758 81 768 106 q 729 39 747 57 q 687 10 711 21 q 635 0 663 0 l 257 0 q 184 15 218 0 q 124 54 150 29 q 84 113 99 79 q 69 185 69 147 l 69 481 q 84 552 69 518 q 124 612 99 586 q 184 652 150 638 q 257 667 218 667 l 581 667 q 655 652 621 667 q 714 612 689 638 q 753 552 739 586 q 768 481 768 518 m 581 592 l 257 592 q 177 559 210 592 q 144 481 144 526 l 144 371 l 693 371 l 693 481 q 660 559 693 526 q 581 592 628 592 m 272 806 l 400 974 l 438 974 l 567 806 l 483 806 l 419 914 l 356 806 l 272 806 z "},"ë":{"ha":838,"x_min":69,"x_max":768,"o":"m 768 481 l 768 296 l 144 296 l 144 185 q 153 142 144 163 q 178 107 163 122 q 214 83 193 92 q 257 74 235 74 l 635 74 q 676 91 660 74 q 693 132 693 108 l 693 146 l 768 146 l 768 132 q 758 81 768 106 q 729 39 747 57 q 687 10 711 21 q 635 0 663 0 l 257 0 q 184 15 218 0 q 124 54 150 29 q 84 113 99 79 q 69 185 69 147 l 69 481 q 84 552 69 518 q 124 612 99 586 q 184 652 150 638 q 257 667 218 667 l 581 667 q 655 652 621 667 q 714 612 689 638 q 753 552 739 586 q 768 481 768 518 m 581 592 l 257 592 q 177 559 210 592 q 144 481 144 526 l 144 371 l 693 371 l 693 481 q 660 559 693 526 q 581 592 628 592 m 478 974 l 553 974 l 553 900 l 478 900 l 478 974 m 361 974 l 361 900 l 286 900 l 286 974 l 361 974 z "},"ì":{"ha":336,"x_min":69,"x_max":267,"o":"m 257 667 l 257 0 l 181 0 l 181 667 l 257 667 m 267 806 l 213 806 l 69 974 l 167 974 l 267 806 z "},"í":{"ha":336,"x_min":69,"x_max":267,"o":"m 156 667 l 156 0 l 79 0 l 79 667 l 156 667 m 124 806 l 69 806 l 169 974 l 267 974 l 124 806 z "},"î":{"ha":433,"x_min":69,"x_max":364,"o":"m 254 0 l 179 0 l 179 667 l 254 667 l 254 0 m 364 806 l 281 806 l 217 914 l 153 806 l 69 806 l 197 974 l 236 974 l 364 806 z "},"ï":{"ha":406,"x_min":69,"x_max":338,"o":"m 240 667 l 240 0 l 165 0 l 165 667 l 240 667 m 338 974 l 338 900 l 261 900 l 261 974 l 338 974 m 144 974 l 144 900 l 69 900 l 69 974 l 144 974 z "},"ð":{"ha":935,"x_min":69,"x_max":865,"o":"m 597 664 l 597 763 l 693 844 l 693 974 l 768 974 l 768 908 l 865 990 l 865 889 l 768 807 l 768 0 l 693 0 l 693 42 q 563 0 638 0 l 275 0 q 192 15 229 0 q 127 58 154 31 q 85 122 100 85 q 69 203 69 160 l 69 464 q 85 545 69 508 q 127 609 100 582 q 192 651 154 636 q 275 667 229 667 l 563 667 q 581 666 572 667 q 597 664 589 665 m 693 464 q 658 557 693 522 q 563 592 622 592 l 275 592 q 180 557 215 592 q 144 464 144 522 l 144 203 q 180 109 144 144 q 275 74 215 74 l 563 74 q 658 109 622 74 q 693 203 693 144 l 693 464 m 693 743 l 600 664 q 649 650 625 660 q 693 625 674 640 l 693 743 z "},"ñ":{"ha":838,"x_min":69,"x_max":768,"o":"m 693 464 q 658 557 693 522 q 563 592 622 592 l 275 592 q 180 557 215 592 q 144 464 144 522 l 144 0 l 69 0 l 69 464 q 85 545 69 508 q 127 609 100 582 q 192 651 154 636 q 275 667 229 667 l 563 667 q 647 651 608 667 q 712 609 685 636 q 753 545 739 582 q 768 464 768 508 l 768 0 l 693 0 l 693 464 m 432 954 q 463 942 449 947 q 493 936 478 936 q 527 940 508 936 q 554 950 546 943 l 576 968 l 576 899 l 569 894 q 528 880 553 883 q 486 876 504 876 q 449 883 467 876 q 413 896 431 889 q 381 908 396 903 q 350 914 365 914 q 318 913 339 914 q 288 904 297 911 q 272 915 278 907 q 264 931 267 922 q 261 951 261 944 l 268 956 q 313 970 286 967 q 357 974 339 974 q 394 967 376 974 q 432 954 413 961 z "},"ò":{"ha":838,"x_min":69,"x_max":768,"o":"m 768 464 l 768 203 q 753 122 768 160 q 712 58 739 85 q 647 15 685 31 q 563 0 608 0 l 275 0 q 192 15 229 0 q 127 58 154 31 q 85 122 100 85 q 69 203 69 160 l 69 464 q 85 545 69 508 q 127 609 100 582 q 192 651 154 636 q 275 667 229 667 l 563 667 q 647 651 608 667 q 712 609 685 636 q 753 545 739 582 q 768 464 768 508 m 563 592 l 275 592 q 180 557 215 592 q 144 464 144 522 l 144 203 q 180 109 144 144 q 275 74 215 74 l 563 74 q 658 109 622 74 q 693 203 693 144 l 693 464 q 658 557 693 522 q 563 592 622 592 m 436 806 l 294 974 l 392 974 l 490 806 l 436 806 z "},"ó":{"ha":838,"x_min":69,"x_max":768,"o":"m 768 464 l 768 203 q 753 122 768 160 q 712 58 739 85 q 647 15 685 31 q 563 0 608 0 l 275 0 q 192 15 229 0 q 127 58 154 31 q 85 122 100 85 q 69 203 69 160 l 69 464 q 85 545 69 508 q 127 609 100 582 q 192 651 154 636 q 275 667 229 667 l 563 667 q 647 651 608 667 q 712 609 685 636 q 753 545 739 582 q 768 464 768 508 m 563 592 l 275 592 q 180 557 215 592 q 144 464 144 522 l 144 203 q 180 109 144 144 q 275 74 215 74 l 563 74 q 658 109 622 74 q 693 203 693 144 l 693 464 q 658 557 693 522 q 563 592 622 592 m 544 974 l 401 806 l 347 806 l 447 974 l 544 974 z "},"ô":{"ha":838,"x_min":69,"x_max":768,"o":"m 768 464 l 768 203 q 753 122 768 160 q 712 58 739 85 q 647 15 685 31 q 563 0 608 0 l 275 0 q 192 15 229 0 q 127 58 154 31 q 85 122 100 85 q 69 203 69 160 l 69 464 q 85 545 69 508 q 127 609 100 582 q 192 651 154 636 q 275 667 229 667 l 563 667 q 647 651 608 667 q 712 609 685 636 q 753 545 739 582 q 768 464 768 508 m 563 592 l 275 592 q 180 557 215 592 q 144 464 144 522 l 144 203 q 180 109 144 144 q 275 74 215 74 l 563 74 q 658 109 622 74 q 693 203 693 144 l 693 464 q 658 557 693 522 q 563 592 622 592 m 438 974 l 567 806 l 483 806 l 419 914 l 356 806 l 272 806 l 400 974 l 438 974 z "},"õ":{"ha":838,"x_min":69,"x_max":768,"o":"m 563 667 q 647 651 608 667 q 712 609 685 636 q 753 545 739 582 q 768 464 768 508 l 768 203 q 753 122 768 160 q 712 58 739 85 q 647 15 685 31 q 563 0 608 0 l 275 0 q 192 15 229 0 q 127 58 154 31 q 85 122 100 85 q 69 203 69 160 l 69 464 q 85 545 69 508 q 127 609 100 582 q 192 651 154 636 q 275 667 229 667 l 563 667 m 563 592 l 275 592 q 180 557 215 592 q 144 464 144 522 l 144 203 q 180 109 144 144 q 275 74 215 74 l 563 74 q 658 109 622 74 q 693 203 693 144 l 693 464 q 658 557 693 522 q 563 592 622 592 m 288 904 q 272 915 278 907 q 264 931 267 922 q 261 951 261 944 l 268 956 q 313 970 286 967 q 357 974 339 974 q 394 967 376 974 q 432 954 413 961 q 463 942 449 947 q 493 936 478 936 q 527 940 508 936 q 554 950 546 943 l 576 968 l 576 899 l 569 894 q 528 880 553 883 q 486 876 504 876 q 449 883 467 876 q 413 896 431 889 q 381 908 396 903 q 350 914 365 914 q 318 913 339 914 q 288 904 297 911 z "},"ö":{"ha":838,"x_min":69,"x_max":768,"o":"m 768 464 l 768 203 q 753 122 768 160 q 712 58 739 85 q 647 15 685 31 q 563 0 608 0 l 275 0 q 192 15 229 0 q 127 58 154 31 q 85 122 100 85 q 69 203 69 160 l 69 464 q 85 545 69 508 q 127 609 100 582 q 192 651 154 636 q 275 667 229 667 l 563 667 q 647 651 608 667 q 712 609 685 636 q 753 545 739 582 q 768 464 768 508 m 693 203 l 693 464 q 658 557 693 522 q 563 592 622 592 l 275 592 q 180 557 215 592 q 144 464 144 522 l 144 203 q 180 109 144 144 q 275 74 215 74 l 563 74 q 658 109 622 74 q 693 203 693 144 m 478 900 l 478 974 l 553 974 l 553 900 l 478 900 m 361 900 l 286 900 l 286 974 l 361 974 l 361 900 z "},"÷":{"ha":526,"x_min":69,"x_max":457,"o":"m 457 406 l 69 406 l 69 481 l 457 481 l 457 406 m 225 635 l 301 635 l 301 560 l 225 560 l 225 635 m 301 253 l 225 253 l 225 326 l 301 326 l 301 253 z "},"ø":{"ha":874,"x_min":69,"x_max":804,"o":"m 293 0 q 192 24 239 0 l 169 0 l 69 0 l 135 68 q 99 131 111 96 q 88 203 88 167 l 88 464 q 103 545 88 508 q 145 609 118 582 q 210 651 172 636 q 293 667 247 667 l 581 667 q 682 643 632 667 l 704 667 l 804 667 l 739 599 q 775 535 764 569 q 786 464 786 500 l 786 203 q 771 122 786 160 q 728 58 756 85 q 664 15 701 31 q 581 0 626 0 l 293 0 m 293 592 q 198 557 233 592 q 163 464 163 522 l 163 203 q 186 124 163 160 l 628 585 q 581 592 607 592 l 293 592 m 581 74 q 676 109 640 74 q 711 203 711 144 l 711 464 q 706 506 711 485 q 688 543 700 526 l 247 81 q 293 74 272 74 l 581 74 z "},"ù":{"ha":838,"x_min":69,"x_max":768,"o":"m 768 667 l 768 203 q 753 122 768 160 q 712 58 739 85 q 647 15 685 31 q 563 0 608 0 l 275 0 q 192 15 229 0 q 127 58 154 31 q 85 122 100 85 q 69 203 69 160 l 69 667 l 144 667 l 144 203 q 180 109 144 144 q 275 74 215 74 l 563 74 q 658 109 622 74 q 693 203 693 144 l 693 667 l 768 667 m 294 974 l 392 974 l 490 806 l 436 806 l 294 974 z "},"ú":{"ha":838,"x_min":69,"x_max":768,"o":"m 768 667 l 768 203 q 753 122 768 160 q 712 58 739 85 q 647 15 685 31 q 563 0 608 0 l 275 0 q 192 15 229 0 q 127 58 154 31 q 85 122 100 85 q 69 203 69 160 l 69 667 l 144 667 l 144 203 q 180 109 144 144 q 275 74 215 74 l 563 74 q 658 109 622 74 q 693 203 693 144 l 693 667 l 768 667 m 447 974 l 544 974 l 401 806 l 347 806 l 447 974 z "},"û":{"ha":838,"x_min":69,"x_max":768,"o":"m 693 203 l 693 667 l 768 667 l 768 203 q 753 122 768 160 q 712 58 739 85 q 647 15 685 31 q 563 0 608 0 l 275 0 q 192 15 229 0 q 127 58 154 31 q 85 122 100 85 q 69 203 69 160 l 69 667 l 144 667 l 144 203 q 180 109 144 144 q 275 74 215 74 l 563 74 q 658 109 622 74 q 693 203 693 144 m 483 806 l 419 914 l 356 806 l 272 806 l 400 974 l 438 974 l 567 806 l 483 806 z "},"ü":{"ha":838,"x_min":69,"x_max":768,"o":"m 563 0 l 275 0 q 192 15 229 0 q 127 58 154 31 q 85 122 100 85 q 69 203 69 160 l 69 667 l 144 667 l 144 203 q 180 109 144 144 q 275 74 215 74 l 563 74 q 658 109 622 74 q 693 203 693 144 l 693 667 l 768 667 l 768 203 q 753 122 768 160 q 712 58 739 85 q 647 15 685 31 q 563 0 608 0 m 286 900 l 286 974 l 361 974 l 361 900 l 286 900 m 478 900 l 478 974 l 553 974 l 553 900 l 478 900 z "},"ý":{"ha":838,"x_min":69,"x_max":768,"o":"m 563 -285 l 189 -285 l 189 -210 l 563 -210 q 658 -175 622 -210 q 693 -82 693 -140 l 693 42 q 563 0 638 0 l 275 0 q 192 15 229 0 q 127 58 154 31 q 85 122 100 85 q 69 203 69 160 l 69 667 l 144 667 l 144 203 q 180 109 144 144 q 275 74 215 74 l 563 74 q 658 109 622 74 q 693 203 693 144 l 693 667 l 768 667 l 768 -82 q 753 -163 768 -126 q 712 -227 739 -200 q 647 -269 685 -254 q 563 -285 608 -285 m 544 974 l 401 806 l 347 806 l 447 974 l 544 974 z "},"þ":{"ha":838,"x_min":69,"x_max":768,"o":"m 563 0 l 275 0 q 144 42 201 0 l 144 -285 l 69 -285 l 69 974 l 144 974 l 144 625 q 275 667 201 667 l 563 667 q 647 651 608 667 q 712 609 685 636 q 753 545 739 582 q 768 464 768 508 l 768 203 q 753 122 768 160 q 712 58 739 85 q 647 15 685 31 q 563 0 608 0 m 275 592 q 180 557 215 592 q 144 464 144 522 l 144 203 q 180 109 144 144 q 275 74 215 74 l 563 74 q 658 109 622 74 q 693 203 693 144 l 693 464 q 658 557 693 522 q 563 592 622 592 l 275 592 z "},"ÿ":{"ha":838,"x_min":69,"x_max":768,"o":"m 768 667 l 768 -82 q 753 -163 768 -126 q 712 -227 739 -200 q 647 -269 685 -254 q 563 -285 608 -285 l 189 -285 l 189 -210 l 563 -210 q 658 -175 622 -210 q 693 -82 693 -140 l 693 42 q 563 0 638 0 l 275 0 q 192 15 229 0 q 127 58 154 31 q 85 122 100 85 q 69 203 69 160 l 69 667 l 144 667 l 144 203 q 180 109 144 144 q 275 74 215 74 l 563 74 q 658 109 622 74 q 693 203 693 144 l 693 667 l 768 667 m 478 900 l 478 974 l 553 974 l 553 900 l 478 900 m 361 900 l 286 900 l 286 974 l 361 974 l 361 900 z "},"ı":{"ha":214,"x_min":69,"x_max":144,"o":"m 144 667 l 144 0 l 69 0 l 69 667 l 144 667 z "},"Ł":{"ha":1126,"x_min":69,"x_max":1057,"o":"m 529 636 l 265 440 l 265 132 q 282 91 265 108 q 324 74 299 74 l 1057 74 l 1057 0 l 324 0 q 271 10 296 0 q 228 39 246 21 q 199 81 210 57 q 189 132 189 106 l 189 383 l 69 294 l 69 385 l 189 474 l 189 974 l 265 974 l 265 531 l 529 728 l 529 636 z "},"ł":{"ha":406,"x_min":69,"x_max":338,"o":"m 240 474 l 240 0 l 165 0 l 165 394 l 69 294 l 69 400 l 165 500 l 165 974 l 240 974 l 240 579 l 338 679 l 338 574 l 240 474 z "},"Œ":{"ha":1797,"x_min":69,"x_max":1728,"o":"m 899 40 q 803 0 858 0 l 203 0 q 151 10 175 0 q 108 39 126 21 q 80 81 90 57 q 69 132 69 106 l 69 842 q 80 893 69 869 q 108 935 90 917 q 151 963 126 953 q 203 974 175 974 l 803 974 q 899 933 858 974 q 994 974 939 974 l 1728 974 l 1728 900 l 994 900 q 953 883 971 900 q 936 842 936 867 l 936 547 l 1728 547 l 1728 474 l 936 474 l 936 132 q 953 91 936 108 q 994 74 971 74 l 1728 74 l 1728 0 l 994 0 q 899 40 939 0 m 803 900 l 203 900 q 162 883 179 900 q 144 842 144 867 l 144 132 q 162 91 144 108 q 203 74 179 74 l 803 74 q 844 91 828 74 q 861 132 861 108 l 861 842 q 844 883 861 867 q 803 900 828 900 z "},"œ":{"ha":1463,"x_min":69,"x_max":1393,"o":"m 563 667 q 656 647 611 667 q 729 589 700 628 q 795 646 756 625 q 881 667 835 667 l 1206 667 q 1278 652 1244 667 q 1338 612 1313 638 q 1378 552 1364 586 q 1393 481 1393 518 l 1393 296 l 768 296 l 768 185 q 777 142 768 163 q 801 107 786 122 q 838 83 817 92 q 881 74 858 74 l 1258 74 q 1300 91 1283 74 q 1317 132 1317 108 l 1317 146 l 1393 146 l 1393 132 q 1383 81 1393 106 q 1354 39 1372 57 q 1311 10 1336 21 q 1258 0 1286 0 l 881 0 q 795 21 835 0 q 729 78 756 42 q 656 19 700 38 q 563 0 611 0 l 275 0 q 192 15 229 0 q 127 58 154 31 q 85 122 100 85 q 69 203 69 160 l 69 464 q 85 545 69 508 q 127 609 100 582 q 192 651 154 636 q 275 667 229 667 l 563 667 m 563 592 l 275 592 q 180 557 215 592 q 144 464 144 522 l 144 203 q 180 109 144 144 q 275 74 215 74 l 563 74 q 658 109 622 74 q 693 203 693 144 l 693 464 q 658 557 693 522 q 563 592 622 592 m 768 481 l 768 371 l 1317 371 l 1317 481 q 1284 559 1317 526 q 1206 592 1251 592 l 881 592 q 801 559 835 592 q 768 481 768 526 z "},"Š":{"ha":1007,"x_min":69,"x_max":936,"o":"m 803 0 l 69 0 l 69 74 l 803 74 q 844 91 828 74 q 861 132 861 108 l 861 417 q 844 457 861 440 q 803 474 828 474 l 203 474 q 151 484 175 474 q 108 513 126 494 q 80 555 90 531 q 69 606 69 579 l 69 842 q 80 893 69 869 q 108 935 90 917 q 151 963 126 953 q 203 974 175 974 l 936 974 l 936 900 l 203 900 q 162 883 179 900 q 144 842 144 867 l 144 606 q 162 565 144 582 q 203 547 179 547 l 803 547 q 855 537 831 547 q 897 508 879 526 q 926 467 915 490 q 936 417 936 443 l 936 132 q 926 81 936 106 q 897 39 915 57 q 855 10 879 21 q 803 0 831 0 m 439 1211 l 503 1103 l 567 1211 l 650 1211 l 522 1042 l 485 1042 l 356 1211 l 439 1211 z "},"š":{"ha":838,"x_min":69,"x_max":769,"o":"m 251 592 q 165 565 186 592 q 144 475 144 539 q 168 394 144 417 q 251 371 192 371 l 588 371 q 728 321 688 371 q 768 179 768 271 q 724 46 768 92 q 588 0 679 0 l 203 0 q 151 10 175 0 q 108 39 126 21 q 80 81 90 57 q 69 132 69 106 l 69 146 l 144 146 l 144 132 q 162 91 144 108 q 203 74 179 74 l 588 74 q 673 101 653 74 q 693 192 693 128 q 669 273 693 250 q 588 296 646 296 l 251 296 q 110 346 151 296 q 69 488 69 396 q 115 621 69 575 q 251 667 160 667 l 635 667 q 687 656 663 667 q 729 628 711 646 q 758 586 747 610 q 768 535 768 563 l 769 521 l 693 521 l 693 535 q 676 575 693 558 q 635 592 660 592 l 251 592 m 356 974 l 419 865 l 483 974 l 567 974 l 438 806 l 400 806 l 272 974 l 356 974 z "},"ū":{"ha":838,"x_min":69,"x_max":768,"o":"m 768 667 l 768 203 q 753 122 768 160 q 712 58 739 85 q 647 15 685 31 q 563 0 608 0 l 275 0 q 192 15 229 0 q 127 58 154 31 q 85 122 100 85 q 69 203 69 160 l 69 667 l 144 667 l 144 203 q 180 109 144 144 q 275 74 215 74 l 563 74 q 658 109 622 74 q 693 203 693 144 l 693 667 l 768 667 m 225 911 l 225 974 l 613 974 l 613 911 l 225 911 z "},"ŭ":{"ha":838,"x_min":69,"x_max":768,"o":"m 563 0 l 275 0 q 192 15 229 0 q 127 58 154 31 q 85 122 100 85 q 69 203 69 160 l 69 667 l 144 667 l 144 203 q 180 109 144 144 q 275 74 215 74 l 563 74 q 658 109 622 74 q 693 203 693 144 l 693 667 l 768 667 l 768 203 q 753 122 768 160 q 712 58 739 85 q 647 15 685 31 q 563 0 608 0 m 567 974 l 438 806 l 400 806 l 272 974 l 356 974 l 419 865 l 483 974 l 567 974 z "},"Ÿ":{"ha":1036,"x_min":69,"x_max":967,"o":"m 69 974 l 167 974 l 518 546 l 869 974 l 967 974 l 556 474 l 556 0 l 481 0 l 481 474 l 69 974 m 460 1211 l 460 1136 l 385 1136 l 385 1211 l 460 1211 m 576 1136 l 576 1211 l 651 1211 l 651 1136 l 576 1136 z "},"Ž":{"ha":1007,"x_min":69,"x_max":936,"o":"m 936 908 l 181 74 l 936 74 l 936 0 l 69 0 l 69 65 l 825 900 l 69 900 l 69 974 l 936 974 l 936 908 m 650 1211 l 522 1042 l 485 1042 l 356 1211 l 439 1211 l 503 1103 l 567 1211 l 650 1211 z "},"ž":{"ha":838,"x_min":69,"x_max":768,"o":"m 768 600 l 194 74 l 768 74 l 768 0 l 69 0 l 69 67 l 644 592 l 69 592 l 69 667 l 768 667 l 768 600 m 567 974 l 438 806 l 400 806 l 272 974 l 356 974 l 419 865 l 483 974 l 567 974 z "},"ˆ":{"ha":433,"x_min":69,"x_max":364,"o":"m 364 806 l 281 806 l 217 914 l 153 806 l 69 806 l 197 974 l 236 974 l 364 806 z "},"ˇ":{"ha":433,"x_min":69,"x_max":364,"o":"m 236 806 l 197 806 l 69 974 l 153 974 l 217 865 l 281 974 l 364 974 l 236 806 z "},"˜":{"ha":454,"x_min":69,"x_max":385,"o":"m 294 876 q 257 883 275 876 q 221 896 239 889 q 188 908 204 903 q 157 914 172 914 q 126 913 146 914 q 96 904 106 911 q 81 915 86 907 q 72 931 75 922 q 69 951 69 944 l 76 956 q 121 970 94 967 q 165 974 147 974 q 203 968 185 974 q 238 955 221 963 q 272 942 256 947 q 301 936 288 936 q 335 940 317 936 q 363 950 353 943 l 385 968 l 385 899 l 378 894 q 336 880 360 883 q 294 876 313 876 z "},"–":{"ha":646,"x_min":69,"x_max":576,"o":"m 576 500 l 576 426 l 69 426 l 69 500 l 576 500 z "},"—":{"ha":886,"x_min":69,"x_max":817,"o":"m 817 500 l 817 426 l 69 426 l 69 500 l 817 500 z "},"‘":{"ha":218,"x_min":69,"x_max":149,"o":"m 69 853 l 100 974 l 149 974 l 149 853 l 69 853 z "},"’":{"ha":218,"x_min":69,"x_max":149,"o":"m 69 853 l 69 974 l 149 974 l 118 853 l 69 853 z "},"‚":{"ha":218,"x_min":69,"x_max":149,"o":"m 69 -47 l 69 74 l 149 74 l 118 -47 l 69 -47 z "},"‛":{"ha":218,"x_min":69,"x_max":149,"o":"m 69 974 l 149 974 l 149 853 l 100 853 l 69 974 z "},"“":{"ha":290,"x_min":69,"x_max":221,"o":"m 221 974 l 221 853 l 69 853 l 100 974 l 149 974 l 149 881 l 172 974 l 221 974 z "},"”":{"ha":290,"x_min":69,"x_max":221,"o":"m 142 853 l 142 946 l 118 853 l 69 853 l 69 974 l 221 974 l 190 853 l 142 853 z "},"„":{"ha":290,"x_min":69,"x_max":221,"o":"m 142 -47 l 142 46 l 118 -47 l 69 -47 l 69 74 l 221 74 l 190 -47 l 142 -47 z "},"†":{"ha":767,"x_min":69,"x_max":697,"o":"m 421 974 l 697 974 l 697 900 l 421 900 l 421 -118 l 346 -118 l 346 900 l 69 900 l 69 974 l 346 974 l 346 1093 l 421 1093 l 421 974 z "},"‡":{"ha":767,"x_min":69,"x_max":697,"o":"m 421 -118 l 346 -118 l 346 0 l 69 0 l 69 74 l 346 74 l 346 900 l 69 900 l 69 974 l 346 974 l 346 1093 l 421 1093 l 421 974 l 697 974 l 697 900 l 421 900 l 421 74 l 697 74 l 697 0 l 421 0 l 421 -118 z "},"•":{"ha":263,"x_min":69,"x_max":193,"o":"m 193 571 l 193 450 l 69 450 l 69 571 l 193 571 z "},"…":{"ha":646,"x_min":69,"x_max":576,"o":"m 286 74 l 361 74 l 361 0 l 286 0 l 286 74 m 144 74 l 144 0 l 69 0 l 69 74 l 144 74 m 501 0 l 501 74 l 576 74 l 576 0 l 501 0 z "},"‰":{"ha":1381,"x_min":69,"x_max":1311,"o":"m 69 0 l 869 974 l 967 974 l 167 0 l 69 0 m 338 651 l 218 651 q 121 746 121 651 l 121 842 q 218 939 121 939 l 338 939 q 436 842 436 939 l 436 746 q 410 675 436 699 q 338 651 385 651 m 915 226 l 915 129 q 890 60 915 83 q 818 36 864 36 l 697 36 q 600 129 600 36 l 600 226 q 697 322 600 322 l 818 322 q 915 226 915 322 m 1214 322 q 1311 226 1311 322 l 1311 129 q 1285 60 1311 83 q 1214 36 1260 36 l 1094 36 q 996 129 996 36 l 996 226 q 1094 322 996 322 l 1214 322 m 853 226 q 847 255 853 249 q 818 261 840 261 l 697 261 q 669 255 675 261 q 664 226 664 249 l 664 129 q 669 103 664 108 q 697 97 675 97 l 818 97 q 847 103 840 97 q 853 129 853 110 l 853 226 m 1214 97 q 1242 103 1236 97 q 1249 129 1249 110 l 1249 226 q 1242 255 1249 249 q 1214 261 1236 261 l 1094 261 q 1066 255 1072 261 q 1060 226 1060 249 l 1060 129 q 1065 103 1060 108 q 1094 97 1071 97 l 1214 97 m 338 876 l 218 876 q 190 870 196 876 q 183 842 183 864 l 183 746 q 189 719 183 724 q 218 714 194 714 l 338 714 q 366 719 360 714 q 372 746 372 725 l 372 842 q 366 870 372 864 q 338 876 360 876 z "},"‹":{"ha":422,"x_min":69,"x_max":354,"o":"m 257 596 l 354 596 l 165 344 l 354 94 l 257 94 l 69 344 l 257 596 z "},"›":{"ha":422,"x_min":69,"x_max":354,"o":"m 69 596 l 165 596 l 354 344 l 165 94 l 69 94 l 257 344 l 69 596 z "},"⁄":{"ha":1036,"x_min":69,"x_max":967,"o":"m 69 0 l 869 974 l 967 974 l 167 0 l 69 0 z "},"€":{"ha":886,"x_min":69,"x_max":817,"o":"m 265 132 q 282 91 265 108 q 324 74 299 74 l 817 74 l 817 0 l 324 0 q 271 10 296 0 q 228 39 246 21 q 199 81 210 57 q 189 132 189 106 l 189 356 l 69 356 l 69 429 l 189 429 l 189 544 l 69 544 l 69 619 l 189 619 l 189 842 q 199 893 189 869 q 228 935 210 917 q 271 963 246 953 q 324 974 296 974 l 817 974 l 817 900 l 324 900 q 282 883 299 900 q 265 842 265 867 l 265 619 l 576 619 l 576 544 l 265 544 l 265 429 l 576 429 l 576 356 l 265 356 l 265 132 z "},"™":{"ha":694,"x_min":69,"x_max":625,"o":"m 361 711 l 310 711 l 310 974 l 360 974 l 467 781 l 574 974 l 625 974 l 625 711 l 574 711 l 574 865 l 488 711 l 447 711 l 361 865 l 361 711 m 69 924 l 69 974 l 289 974 l 289 924 l 206 924 l 206 711 l 154 711 l 154 924 l 69 924 z "},"−":{"ha":526,"x_min":69,"x_max":457,"o":"m 457 500 l 457 426 l 69 426 l 69 500 l 457 500 z "},"":{"ha":1007,"x_min":69,"x_max":938,"o":"m 203 0 q 151 10 175 0 q 108 39 126 21 q 80 81 90 57 q 69 132 69 106 q 86 194 69 165 q 131 243 103 224 q 83 315 94 275 q 69 400 72 354 l 69 464 q 85 545 69 508 q 127 609 100 582 q 192 651 154 636 q 275 667 229 667 l 660 667 q 742 652 703 667 q 811 606 781 638 q 858 650 829 633 q 924 667 888 667 l 938 667 l 938 592 l 924 592 q 883 575 900 592 q 865 535 865 558 l 865 392 q 850 311 865 349 q 808 247 835 274 q 743 204 781 219 q 660 189 706 189 l 203 189 q 162 172 179 189 q 144 132 144 156 q 162 91 144 108 q 203 74 179 74 l 660 74 q 739 63 701 74 q 805 31 776 53 q 849 -24 833 10 q 865 -106 865 -58 q 849 -185 865 -151 q 805 -242 833 -219 q 739 -274 776 -264 q 660 -285 701 -285 l 261 -285 l 261 -210 l 660 -210 q 753 -187 718 -210 q 789 -106 789 -164 q 753 -24 789 -47 q 660 0 718 0 l 203 0 m 275 592 q 180 557 215 592 q 144 464 144 522 l 144 392 q 180 299 144 333 q 275 264 215 264 l 660 264 q 753 299 718 264 q 789 392 789 333 l 789 464 q 753 557 789 522 q 660 592 718 592 l 275 592 z "},"ﬁ":{"ha":886,"x_min":69,"x_max":817,"o":"m 419 900 q 324 859 360 900 q 289 760 289 818 l 289 667 l 817 667 l 817 0 l 742 0 l 742 592 l 289 592 l 289 0 l 214 0 l 214 592 l 69 592 l 69 667 l 214 667 l 214 760 q 228 842 214 803 q 270 910 243 881 q 335 956 297 939 q 419 974 372 974 l 768 974 l 768 900 l 419 900 z "},"^":{"ha":1011,"x_min":0,"x_max":0,"o":""},"¯":{"ha":758,"x_min":0,"x_max":0,"o":""},"¬":{"ha":1011,"x_min":0,"x_max":0,"o":""},"ƒ":{"ha":838,"x_min":69,"x_max":768,"o":"m 768 900 l 419 900 q 324 859 360 900 q 289 760 289 818 l 289 667 l 768 667 l 768 592 l 289 592 l 289 0 l 214 0 l 214 592 l 69 592 l 69 667 l 214 667 l 214 760 q 228 842 214 803 q 270 910 243 881 q 335 956 297 939 q 419 974 372 974 l 768 974 l 768 900 z "},"¦":{"ha":531,"x_min":0,"x_max":0,"o":""},"ª":{"ha":838,"x_min":69,"x_max":768,"o":"m 693 619 l 693 667 l 768 667 l 768 0 l 693 0 l 693 53 q 628 14 664 28 q 551 0 592 0 l 275 0 q 191 17 229 0 q 126 65 153 35 q 84 133 99 94 q 69 215 69 172 l 69 451 q 84 533 69 494 q 126 602 99 572 q 191 649 153 632 q 275 667 229 667 l 563 667 q 693 619 638 667 m 693 451 q 658 551 693 510 q 563 592 622 592 l 275 592 q 180 551 215 592 q 144 451 144 510 l 144 215 q 180 115 144 157 q 275 74 215 74 l 551 74 q 607 85 581 74 q 652 115 633 96 q 682 160 671 135 q 693 215 693 186 l 693 451 z "},"º":{"ha":838,"x_min":69,"x_max":768,"o":"m 768 203 q 753 122 768 160 q 712 58 739 85 q 647 15 685 31 q 563 0 608 0 l 275 0 q 192 15 229 0 q 127 58 154 31 q 85 122 100 85 q 69 203 69 160 l 69 464 q 85 545 69 508 q 127 609 100 582 q 192 651 154 636 q 275 667 229 667 l 563 667 q 647 651 608 667 q 712 609 685 636 q 753 545 739 582 q 768 464 768 508 l 768 203 m 693 464 q 658 557 693 522 q 563 592 622 592 l 275 592 q 180 557 215 592 q 144 464 144 522 l 144 203 q 180 109 144 144 q 275 74 215 74 l 563 74 q 658 109 622 74 q 693 203 693 144 l 693 464 z "},"µ":{"ha":789,"x_min":0,"x_max":0,"o":""},"˘":{"ha":758,"x_min":0,"x_max":0,"o":""},"˙":{"ha":758,"x_min":0,"x_max":0,"o":""},"˚":{"ha":758,"x_min":0,"x_max":0,"o":""},"˝":{"ha":671,"x_min":69,"x_max":603,"o":"m 69 806 l 169 974 l 267 974 l 124 806 l 69 806 m 406 806 l 506 974 l 603 974 l 460 806 l 406 806 z "},"˛":{"ha":758,"x_min":0,"x_max":0,"o":""},"¸":{"ha":758,"x_min":0,"x_max":0,"o":""},"ﬂ":{"ha":1053,"x_min":69,"x_max":982,"o":"m 768 900 l 419 900 q 324 859 360 900 q 289 760 289 818 l 289 667 l 768 667 l 768 592 l 289 592 l 289 0 l 214 0 l 214 592 l 69 592 l 69 667 l 214 667 l 214 760 q 228 842 214 803 q 270 910 243 881 q 335 956 297 939 q 419 974 372 974 l 768 974 l 768 900 m 982 974 l 982 0 l 907 0 l 907 974 l 982 974 z "},"Đ":{"ha":1126,"x_min":69,"x_max":1057,"o":"m 1057 842 l 1057 132 q 1047 81 1057 106 q 1018 39 1036 57 q 976 10 1000 21 q 924 0 951 0 l 189 0 l 189 474 l 69 474 l 69 547 l 189 547 l 189 974 l 924 974 q 976 963 951 974 q 1018 935 1000 953 q 1047 893 1036 917 q 1057 842 1057 869 m 265 900 l 265 547 l 576 547 l 576 474 l 265 474 l 265 74 l 924 74 q 964 91 947 74 q 981 132 981 108 l 981 842 q 964 883 981 867 q 924 900 947 900 l 265 900 z "}}}
